<svg id="Layer_1" data-name="Layer 1" xmlns="http://www.w3.org/2000/svg" xmlns:xlink="http://www.w3.org/1999/xlink" viewBox="0 0 712.76 294.01"><defs><style>.cls-1{fill:#fff;}.cls-2{fill:url(#linear-gradient);}.cls-3{opacity:0.5;}.cls-4{fill:url(#linear-gradient-2);}.cls-5{fill:url(#linear-gradient-3);}.cls-6{fill:url(#linear-gradient-4);}.cls-7{fill:url(#linear-gradient-5);}.cls-8{fill:#0084cc;}.cls-9{fill:url(#linear-gradient-6);}.cls-10{fill:url(#linear-gradient-7);}.cls-11{fill:url(#linear-gradient-8);}.cls-12{fill:url(#linear-gradient-9);}.cls-13{fill:url(#linear-gradient-10);}.cls-14{opacity:0.6;}.cls-15{fill:url(#linear-gradient-11);}.cls-16{fill:url(#linear-gradient-12);}.cls-17{fill:url(#linear-gradient-13);}</style><linearGradient id="linear-gradient" x1="230.59" y1="125.3" x2="575.95" y2="125.3" gradientUnits="userSpaceOnUse"><stop offset="0" stop-opacity="0.1"/><stop offset="1" stop-color="#fff" stop-opacity="0.1"/></linearGradient><linearGradient id="linear-gradient-2" x1="190.23" y1="102.87" x2="191" y2="154.11" gradientUnits="userSpaceOnUse"><stop offset="0" stop-opacity="0.1"/><stop offset="0.48" stop-color="#fff" stop-opacity="0.2"/><stop offset="1" stop-opacity="0.2"/></linearGradient><linearGradient id="linear-gradient-3" x1="402.71" y1="99.7" x2="403.47" y2="150.94" xlink:href="#linear-gradient-2"/><linearGradient id="linear-gradient-4" x1="561.59" y1="104.56" x2="582.82" y2="104.56" gradientUnits="userSpaceOnUse"><stop offset="0" stop-color="#fff" stop-opacity="0.1"/><stop offset="1" stop-opacity="0.1"/></linearGradient><linearGradient id="linear-gradient-5" x1="580.23" y1="96.6" x2="564.41" y2="112.35" gradientUnits="userSpaceOnUse"><stop offset="0" stop-opacity="0.1"/><stop offset="0.52" stop-color="#fff" stop-opacity="0.2"/><stop offset="1" stop-opacity="0.2"/></linearGradient><linearGradient id="linear-gradient-6" x1="562.65" y1="104.56" x2="581.75" y2="104.56" xlink:href="#linear-gradient"/><linearGradient id="linear-gradient-7" x1="558.48" y1="104.16" x2="584.15" y2="104.9" gradientUnits="userSpaceOnUse"><stop offset="0" stop-opacity="0.2"/><stop offset="0.52" stop-color="#fff" stop-opacity="0.2"/><stop offset="1" stop-opacity="0.1"/></linearGradient><linearGradient id="linear-gradient-8" x1="232.43" y1="125.14" x2="570.54" y2="125.14" xlink:href="#linear-gradient-4"/><linearGradient id="linear-gradient-9" x1="136.07" y1="124.98" x2="172.14" y2="124.98" xlink:href="#linear-gradient-4"/><linearGradient id="linear-gradient-10" x1="171.06" y1="125.37" x2="240.89" y2="125.37" xlink:href="#linear-gradient"/><linearGradient id="linear-gradient-11" x1="118.53" y1="117.79" x2="565.18" y2="130.03" xlink:href="#linear-gradient-2"/><linearGradient id="linear-gradient-12" x1="118.36" y1="124.22" x2="565" y2="136.46" xlink:href="#linear-gradient-2"/><linearGradient id="linear-gradient-13" x1="118.41" y1="122.34" x2="565.05" y2="134.58" xlink:href="#linear-gradient-2"/></defs><title>KOGAhist</title><path class="cls-1" d="M174.51,102.09c-1.08,6.36-2.16,12.66-3.25,19.1.39-.16.63-.24.85-.36l29.26-14.92c2.2-1.13,4.41-2.26,6.62-3.37a2.42,2.42,0,0,1,1-.23l7.74,0c2.67,0,5.34-.08,8-.12l6.79-.12,8-.13,7.26-.1a.79.79,0,0,1,.46.1l-42.58,21.3c12.78,8.73,25.85,16.8,38.73,25.31H203.64a2.25,2.25,0,0,1-1.51-.53c-7.42-6-15.17-11.66-23-17.26-2.59-1.86-5.2-3.69-7.8-5.54-.15-.11-.32-.2-.6-.39-.1.48-.19.86-.25,1.24-.37,2.82-.74,5.63-1.12,8.45s-.79,5.58-1.18,8.37c-.23,1.68-.49,3.36-.67,5-.06.53-.29.62-.81.62h-32c-.82,0-.82,0-.68-.78q.85-4.77,1.68-9.54.72-4,1.42-8.1c.52-3,1.05-6.08,1.57-9.13s1-6,1.55-9,1.06-6.17,1.57-9.25c.15-.91.12-.92,1.17-.91l16.22.13,14.73.12Z"/><path class="cls-1" d="M295.13,149.47h-9.34a3.18,3.18,0,0,0-.62-.06c-1.35-.06-2.71-.08-4.06-.15-2.19-.12-4.38-.18-6.55-.4-3.43-.34-6.86-.74-10.27-1.2A77.84,77.84,0,0,1,247,143.35a36.84,36.84,0,0,1-10.82-5.89c-5-4.22-6.69-9.37-5-15.34,1.13-4,4-7,7.51-9.45A49.46,49.46,0,0,1,254,105.88a125.59,125.59,0,0,1,24-4.16c3.73-.32,7.48-.54,11.22-.61a160.77,160.77,0,0,1,16.28.32c3.19.27,6.38.53,9.56.86a90.66,90.66,0,0,1,15,2.84,53.15,53.15,0,0,1,14.48,6.15c3.52,2.27,6.38,5,7.67,8.88a1.12,1.12,0,0,0,.22.26c.5-.72.93-1.41,1.43-2.06a29.87,29.87,0,0,1,10.11-8,77.34,77.34,0,0,1,24.94-7.49c4.07-.58,8.19-.93,12.3-1.26,3.26-.26,6.54-.4,9.81-.46a109.85,109.85,0,0,1,13.21.33c2.58.27,5.17.46,7.73.79,3.64.46,7.28,1,10.89,1.56,4.88.8,9.75,1.69,14.62,2.52.52.09.67.28.65.73-.07,1.69-.09,3.39-.16,5.09a12.66,12.66,0,0,1-.16,1.33l-7.47-.69c-3.23-.29-6.46-.59-9.7-.83-2.63-.2-5.27-.37-7.91-.48-3.67-.16-7.36-.3-11-.36-2,0-4,0-6,.21-3.42.28-6.84.55-10.22,1a44.85,44.85,0,0,0-13.32,3.79,17.42,17.42,0,0,0-7.57,6.06c-2.1,3.28-2.46,6.64-.16,10a12.69,12.69,0,0,0,6.12,4.41,46.88,46.88,0,0,0,14.11,2.71c2.36.15,4.75.2,7.12.12,3.18-.1,6.35-.34,9.52-.58,2.68-.2,5.34-.5,8-.72.51-.05.63-.28.68-.67q.38-3.28.78-6.57c.05-.39-.11-.5-.51-.51-1.72-.06-3.43-.15-5.15-.21-2.78-.1-5.55-.17-8.33-.26-1.31,0-2.62-.09-3.93-.11-.49,0-.72-.13-.65-.61.11-.81.18-1.62.28-2.43.18-1.63.35-3.25.57-4.87,0-.14.3-.34.48-.36,1.09-.15,2.19-.3,3.29-.37,3.11-.18,6.22-.37,9.33-.48,2.53-.1,5.07-.12,7.6-.13,1.81,0,3.62.06,5.43.08,2.89,0,5.79.07,8.68.13,2.64.06,5.29.15,7.93.24.94,0,1,.12.81,1-.32,1.85-.64,3.7-.9,5.57-.31,2.2-.58,4.41-.84,6.62s-.53,4.67-.78,7c0,.39,0,.79,0,1.31.27-.21.44-.33.6-.47,5-4.35,10-8.69,15-13q15.15-13.2,30.3-26.42a1.75,1.75,0,0,1,1.06-.4c3.66-.07,7.33-.11,11-.14l16.3-.12c3.17,0,6.34,0,9.5,0a1.65,1.65,0,0,1,1.51.68c2.57,3.27,5.18,6.51,7.77,9.76l28,35.16c.28.34.53.69.86,1.12h-2.48q-15.29,0-30.57,0c-.48,0-.87,0-1.16-.51A110.35,110.35,0,0,0,533,135.71a1.14,1.14,0,0,0-1-.47q-18.24,0-36.47,0a1.62,1.62,0,0,0-1,.42q-6.27,6.18-12.47,12.4a1.44,1.44,0,0,1-1.17.47c-2.62,0-5.25,0-7.88,0-9.91,0-19.82,0-29.74.13-2.86,0-5.73.24-8.59.35q-4,.15-7.93.25c-2.76.07-5.52.1-8.28.16a2.85,2.85,0,0,0-.63.14H406.23a5.19,5.19,0,0,0-.77-.14c-3.07-.13-6.14-.2-9.21-.39-3.51-.23-7-.45-10.51-.89-3.9-.49-7.79-1.11-11.64-1.87a42.2,42.2,0,0,1-13-4.67c-4.41-2.54-7.88-5.8-9.63-10.37a1.31,1.31,0,0,0-.2-.28c-.08,0-.13.05-.15.08a1,1,0,0,0-.15.2,23,23,0,0,1-8.55,8.32A59.14,59.14,0,0,1,325,146.18a102.59,102.59,0,0,1-12.84,2.11c-2.95.3-5.91.61-8.88.82-2.41.17-4.83.2-7.24.3A6.65,6.65,0,0,0,295.13,149.47Zm-3.3-9.9c0,.05,0,0,0,0,3.17-.25,6.34-.45,9.5-.79a50.3,50.3,0,0,0,13-3.14,24.26,24.26,0,0,0,8.59-5.25,8.57,8.57,0,0,0,2.83-5.95,7.94,7.94,0,0,0-2.4-5.6,21.17,21.17,0,0,0-7.91-5,56.16,56.16,0,0,0-20-3.66c-3.34-.07-6.68.18-10,.44A50.79,50.79,0,0,0,273.38,113a27.65,27.65,0,0,0-10.56,5.72,9,9,0,0,0-3.2,6.13c-.11,2.54,1.13,4.63,3,6.42a25,25,0,0,0,9.6,5.27A63.54,63.54,0,0,0,291.83,139.57ZM504,125.31h23.19L518,111.56Z"/><path class="cls-2" d="M295.13,149.47h-9.34a3.18,3.18,0,0,0-.62-.06c-1.35-.06-2.71-.08-4.06-.15-2.19-.12-4.38-.18-6.55-.4-3.43-.34-6.86-.74-10.27-1.2A77.84,77.84,0,0,1,247,143.35a36.84,36.84,0,0,1-10.82-5.89c-5-4.22-6.69-9.37-5-15.34,1.13-4,4-7,7.51-9.45A49.46,49.46,0,0,1,254,105.88a125.59,125.59,0,0,1,24-4.16c3.73-.32,7.48-.54,11.22-.61a160.77,160.77,0,0,1,16.28.32c3.19.27,6.38.53,9.56.86a90.66,90.66,0,0,1,15,2.84,53.15,53.15,0,0,1,14.48,6.15c3.52,2.27,6.38,5,7.67,8.88a1.12,1.12,0,0,0,.22.26c.5-.72.93-1.41,1.43-2.06a29.87,29.87,0,0,1,10.11-8,77.34,77.34,0,0,1,24.94-7.49c4.07-.58,8.19-.93,12.3-1.26,3.26-.26,6.54-.4,9.81-.46a109.85,109.85,0,0,1,13.21.33c2.58.27,5.17.46,7.73.79,3.64.46,7.28,1,10.89,1.56,4.88.8,9.75,1.69,14.62,2.52.52.09.67.28.65.73-.07,1.69-.09,3.39-.16,5.09a12.66,12.66,0,0,1-.16,1.33l-7.47-.69c-3.23-.29-6.46-.59-9.7-.83-2.63-.2-5.27-.37-7.91-.48-3.67-.16-7.36-.3-11-.36-2,0-4,0-6,.21-3.42.28-6.84.55-10.22,1a44.85,44.85,0,0,0-13.32,3.79,17.42,17.42,0,0,0-7.57,6.06c-2.1,3.28-2.46,6.64-.16,10a12.69,12.69,0,0,0,6.12,4.41,46.88,46.88,0,0,0,14.11,2.71c2.36.15,4.75.2,7.12.12,3.18-.1,6.35-.34,9.52-.58,2.68-.2,5.34-.5,8-.72.51-.05.63-.28.68-.67q.38-3.28.78-6.57c.05-.39-.11-.5-.51-.51-1.72-.06-3.43-.15-5.15-.21-2.78-.1-5.55-.17-8.33-.26-1.31,0-2.62-.09-3.93-.11-.49,0-.72-.13-.65-.61.11-.81.18-1.62.28-2.43.18-1.63.35-3.25.57-4.87,0-.14.3-.34.48-.36,1.09-.15,2.19-.3,3.29-.37,3.11-.18,6.22-.37,9.33-.48,2.53-.1,5.07-.12,7.6-.13,1.81,0,3.62.06,5.43.08,2.89,0,5.79.07,8.68.13,2.64.06,5.29.15,7.93.24.94,0,1,.12.81,1-.32,1.85-.64,3.7-.9,5.57-.31,2.2-.58,4.41-.84,6.62s-.53,4.67-.78,7c0,.39,0,.79,0,1.31.27-.21.44-.33.6-.47,5-4.35,10-8.69,15-13q15.15-13.2,30.3-26.42a1.75,1.75,0,0,1,1.06-.4c3.66-.07,7.33-.11,11-.14l16.3-.12c3.17,0,6.34,0,9.5,0a1.65,1.65,0,0,1,1.51.68c2.57,3.27,5.18,6.51,7.77,9.76l28,35.16c.28.34.53.69.86,1.12h-2.48q-15.29,0-30.57,0c-.48,0-.87,0-1.16-.51A110.35,110.35,0,0,0,533,135.71a1.14,1.14,0,0,0-1-.47q-18.24,0-36.47,0a1.62,1.62,0,0,0-1,.42q-6.27,6.18-12.47,12.4a1.44,1.44,0,0,1-1.17.47c-2.62,0-5.25,0-7.88,0-9.91,0-19.82,0-29.74.13-2.86,0-5.73.24-8.59.35q-4,.15-7.93.25c-2.76.07-5.52.1-8.28.16a2.85,2.85,0,0,0-.63.14H406.23a5.19,5.19,0,0,0-.77-.14c-3.07-.13-6.14-.2-9.21-.39-3.51-.23-7-.45-10.51-.89-3.9-.49-7.79-1.11-11.64-1.87a42.2,42.2,0,0,1-13-4.67c-4.41-2.54-7.88-5.8-9.63-10.37a1.31,1.31,0,0,0-.2-.28c-.08,0-.13.05-.15.08a1,1,0,0,0-.15.2,23,23,0,0,1-8.55,8.32A59.14,59.14,0,0,1,325,146.18a102.59,102.59,0,0,1-12.84,2.11c-2.95.3-5.91.61-8.88.82-2.41.17-4.83.2-7.24.3A6.65,6.65,0,0,0,295.13,149.47Zm-3.3-9.9c0,.05,0,0,0,0,3.17-.25,6.34-.45,9.5-.79a50.3,50.3,0,0,0,13-3.14,24.26,24.26,0,0,0,8.59-5.25,8.57,8.57,0,0,0,2.83-5.95,7.94,7.94,0,0,0-2.4-5.6,21.17,21.17,0,0,0-7.91-5,56.16,56.16,0,0,0-20-3.66c-3.34-.07-6.68.18-10,.44A50.79,50.79,0,0,0,273.38,113a27.65,27.65,0,0,0-10.56,5.72,9,9,0,0,0-3.2,6.13c-.11,2.54,1.13,4.63,3,6.42a25,25,0,0,0,9.6,5.27A63.54,63.54,0,0,0,291.83,139.57ZM504,125.31h23.19L518,111.56Z"/><g class="cls-3"><path class="cls-4" d="M174.51,102.09c-1.08,6.36-2.16,12.66-3.25,19.1.39-.16.63-.24.85-.36l29.26-14.92c2.2-1.13,4.41-2.26,6.62-3.37a2.42,2.42,0,0,1,1-.23l7.74,0c2.67,0,5.34-.08,8-.12l6.79-.12,8-.13,7.26-.1a.79.79,0,0,1,.46.1l-42.58,21.3c12.78,8.73,25.85,16.8,38.73,25.31H203.64a2.25,2.25,0,0,1-1.51-.53c-7.42-6-15.17-11.66-23-17.26-2.59-1.86-5.2-3.69-7.8-5.54-.15-.11-.32-.2-.6-.39-.1.48-.19.86-.25,1.24-.37,2.82-.74,5.63-1.12,8.45s-.79,5.58-1.18,8.37c-.23,1.68-.49,3.36-.67,5-.06.53-.29.62-.81.62h-32c-.82,0-.82,0-.68-.78q.85-4.77,1.68-9.54.72-4,1.42-8.1c.52-3,1.05-6.08,1.57-9.13s1-6,1.55-9,1.06-6.17,1.57-9.25c.15-.91.12-.92,1.17-.91l16.22.13,14.73.12Z"/><path class="cls-5" d="M295.13,149.47h-9.34a3.18,3.18,0,0,0-.62-.06c-1.35-.06-2.71-.08-4.06-.15-2.19-.12-4.38-.18-6.55-.4-3.43-.34-6.86-.74-10.27-1.2A77.84,77.84,0,0,1,247,143.35a36.84,36.84,0,0,1-10.82-5.89c-5-4.22-6.69-9.37-5-15.34,1.13-4,4-7,7.51-9.45A49.46,49.46,0,0,1,254,105.88a125.59,125.59,0,0,1,24-4.16c3.73-.32,7.48-.54,11.22-.61a160.77,160.77,0,0,1,16.28.32c3.19.27,6.38.53,9.56.86a90.66,90.66,0,0,1,15,2.84,53.15,53.15,0,0,1,14.48,6.15c3.52,2.27,6.38,5,7.67,8.88a1.12,1.12,0,0,0,.22.26c.5-.72.93-1.41,1.43-2.06a29.87,29.87,0,0,1,10.11-8,77.34,77.34,0,0,1,24.94-7.49c4.07-.58,8.19-.93,12.3-1.26,3.26-.26,6.54-.4,9.81-.46a109.85,109.85,0,0,1,13.21.33c2.58.27,5.17.46,7.73.79,3.64.46,7.28,1,10.89,1.56,4.88.8,9.75,1.69,14.62,2.52.52.09.67.28.65.73-.07,1.69-.09,3.39-.16,5.09a12.66,12.66,0,0,1-.16,1.33l-7.47-.69c-3.23-.29-6.46-.59-9.7-.83-2.63-.2-5.27-.37-7.91-.48-3.67-.16-7.36-.3-11-.36-2,0-4,0-6,.21-3.42.28-6.84.55-10.22,1a44.85,44.85,0,0,0-13.32,3.79,17.42,17.42,0,0,0-7.57,6.06c-2.1,3.28-2.46,6.64-.16,10a12.69,12.69,0,0,0,6.12,4.41,46.88,46.88,0,0,0,14.11,2.71c2.36.15,4.75.2,7.12.12,3.18-.1,6.35-.34,9.52-.58,2.68-.2,5.34-.5,8-.72.51-.05.63-.28.68-.67q.38-3.28.78-6.57c.05-.39-.11-.5-.51-.51-1.72-.06-3.43-.15-5.15-.21-2.78-.1-5.55-.17-8.33-.26-1.31,0-2.62-.09-3.93-.11-.49,0-.72-.13-.65-.61.11-.81.18-1.62.28-2.43.18-1.63.35-3.25.57-4.87,0-.14.3-.34.48-.36,1.09-.15,2.19-.3,3.29-.37,3.11-.18,6.22-.37,9.33-.48,2.53-.1,5.07-.12,7.6-.13,1.81,0,3.62.06,5.43.08,2.89,0,5.79.07,8.68.13,2.64.06,5.29.15,7.93.24.94,0,1,.12.81,1-.32,1.85-.64,3.7-.9,5.57-.31,2.2-.58,4.41-.84,6.62s-.53,4.67-.78,7c0,.39,0,.79,0,1.31.27-.21.44-.33.6-.47,5-4.35,10-8.69,15-13q15.15-13.2,30.3-26.42a1.75,1.75,0,0,1,1.06-.4c3.66-.07,7.33-.11,11-.14l16.3-.12c3.17,0,6.34,0,9.5,0a1.65,1.65,0,0,1,1.51.68c2.57,3.27,5.18,6.51,7.77,9.76l28,35.16c.28.34.53.69.86,1.12h-2.48q-15.29,0-30.57,0c-.48,0-.87,0-1.16-.51A110.35,110.35,0,0,0,533,135.71a1.14,1.14,0,0,0-1-.47q-18.24,0-36.47,0a1.62,1.62,0,0,0-1,.42q-6.27,6.18-12.47,12.4a1.44,1.44,0,0,1-1.17.47c-2.62,0-5.25,0-7.88,0-9.91,0-19.82,0-29.74.13-2.86,0-5.73.24-8.59.35q-4,.15-7.93.25c-2.76.07-5.52.1-8.28.16a2.85,2.85,0,0,0-.63.14H406.23a5.19,5.19,0,0,0-.77-.14c-3.07-.13-6.14-.2-9.21-.39-3.51-.23-7-.45-10.51-.89-3.9-.49-7.79-1.11-11.64-1.87a42.2,42.2,0,0,1-13-4.67c-4.41-2.54-7.88-5.8-9.63-10.37a1.31,1.31,0,0,0-.2-.28c-.08,0-.13.05-.15.08a1,1,0,0,0-.15.2,23,23,0,0,1-8.55,8.32A59.14,59.14,0,0,1,325,146.18a102.59,102.59,0,0,1-12.84,2.11c-2.95.3-5.91.61-8.88.82-2.41.17-4.83.2-7.24.3A6.65,6.65,0,0,0,295.13,149.47Zm-3.3-9.9c0,.05,0,0,0,0,3.17-.25,6.34-.45,9.5-.79a50.3,50.3,0,0,0,13-3.14,24.26,24.26,0,0,0,8.59-5.25,8.57,8.57,0,0,0,2.83-5.95,7.94,7.94,0,0,0-2.4-5.6,21.17,21.17,0,0,0-7.91-5,56.16,56.16,0,0,0-20-3.66c-3.34-.07-6.68.18-10,.44A50.79,50.79,0,0,0,273.38,113a27.65,27.65,0,0,0-10.56,5.72,9,9,0,0,0-3.2,6.13c-.11,2.54,1.13,4.63,3,6.42a25,25,0,0,0,9.6,5.27A63.54,63.54,0,0,0,291.83,139.57ZM504,125.31h23.19L518,111.56Z"/></g><path class="cls-1" d="M582.72,103.17c-.57-4-4-7.19-8.39-8l-.66-.13a11.37,11.37,0,0,0-3.21,0h0c-5.73.9-9.58,5.72-8.74,11,.81,5.07,6.19,8.76,11.85,8.07S583.55,109.05,582.72,103.17Zm-19.29-.69-.18.12.18-.12,1,.51Zm1.14-2.84a2.15,2.15,0,0,0-.45,0,2.15,2.15,0,0,1,.45,0h0Zm2.53,7.83a1.83,1.83,0,0,0-.1-.59l-.12-.39.12.39A1.83,1.83,0,0,1,567.1,107.47ZM566,103.86c.15.09.21.34.27.53s.12.42.17.63c-.05-.21-.11-.42-.17-.63s-.12-.44-.27-.53l-.64-.36Zm.29,6.35a3.18,3.18,0,0,0-.37.85,1.36,1.36,0,0,0,0,.2,1.36,1.36,0,0,1,0-.2,3.18,3.18,0,0,1,.37-.85l1.35-2.3Zm1.84-8.36h0l.23.12Zm3.7,2a.8.8,0,0,1,.15.17A.8.8,0,0,0,571.86,103.88Zm1.39-1.4-.3,1.72.3-1.72s0-.1,0-.15S573.26,102.43,573.25,102.48Zm1.23-2.84h0Z"/><path class="cls-6" d="M582.72,103.17c-.57-4-4-7.19-8.39-8l-.66-.13a11.37,11.37,0,0,0-3.21,0h0c-5.73.9-9.58,5.72-8.74,11,.81,5.07,6.19,8.76,11.85,8.07S583.55,109.05,582.72,103.17Zm-19.29-.69-.18.12.18-.12,1,.51Zm1.14-2.84a2.15,2.15,0,0,0-.45,0,2.15,2.15,0,0,1,.45,0h0Zm2.53,7.83a1.83,1.83,0,0,0-.1-.59l-.12-.39.12.39A1.83,1.83,0,0,1,567.1,107.47ZM566,103.86c.15.09.21.34.27.53s.12.42.17.63c-.05-.21-.11-.42-.17-.63s-.12-.44-.27-.53l-.64-.36Zm.29,6.35a3.18,3.18,0,0,0-.37.85,1.36,1.36,0,0,0,0,.2,1.36,1.36,0,0,1,0-.2,3.18,3.18,0,0,1,.37-.85l1.35-2.3Zm1.84-8.36h0l.23.12Zm3.7,2a.8.8,0,0,1,.15.17A.8.8,0,0,0,571.86,103.88Zm1.39-1.4-.3,1.72.3-1.72s0-.1,0-.15S573.26,102.43,573.25,102.48Zm1.23-2.84h0Z"/><path class="cls-7" d="M582.72,103.17c-.57-4-4-7.19-8.39-8l-.66-.13a11.37,11.37,0,0,0-3.21,0h0c-5.73.9-9.58,5.72-8.74,11,.81,5.07,6.19,8.76,11.85,8.07S583.55,109.05,582.72,103.17Zm-19.29-.69-.18.12.18-.12,1,.51Zm1.14-2.84a2.15,2.15,0,0,0-.45,0,2.15,2.15,0,0,1,.45,0h0Zm2.53,7.83a1.83,1.83,0,0,0-.1-.59l-.12-.39.12.39A1.83,1.83,0,0,1,567.1,107.47ZM566,103.86c.15.09.21.34.27.53s.12.42.17.63c-.05-.21-.11-.42-.17-.63s-.12-.44-.27-.53l-.64-.36Zm.29,6.35a3.18,3.18,0,0,0-.37.85,1.36,1.36,0,0,0,0,.2,1.36,1.36,0,0,1,0-.2,3.18,3.18,0,0,1,.37-.85l1.35-2.3Zm1.84-8.36h0l.23.12Zm3.7,2a.8.8,0,0,1,.15.17A.8.8,0,0,0,571.86,103.88Zm1.39-1.4-.3,1.72.3-1.72s0-.1,0-.15S573.26,102.43,573.25,102.48Zm1.23-2.84h0Z"/><path class="cls-8" d="M573.18,102.12h-4.61l1.47.77c.53.28,1.07.53,1.57.84a.93.93,0,0,1,.4,1.4c-1.16,2-2.33,4-3.5,5.94a1,1,0,0,1-1.93-.66,2.76,2.76,0,0,1,.33-.77c.8-1.38,1.62-2.76,2.43-4.14.1-.16.17-.33.28-.54l-.62-.35-4.3-2.21c-.67-.34-.93-.78-.79-1.28a1.33,1.33,0,0,1,1.43-1h8.91c1,0,1.42.37,1.31,1.27-.17,1.31-.41,2.61-.68,3.91a1.15,1.15,0,0,0,.57,1.43c1,.66,2,1.41,3,2.13.59.42.7.94.31,1.39a1.14,1.14,0,0,1-1.65.17c-1.23-.85-2.42-1.75-3.69-2.54a1.78,1.78,0,0,1-.86-2.11c.2-1,.37-2.06.55-3.09A4.78,4.78,0,0,0,573.18,102.12Z"/><path class="cls-8" d="M578.16,100.12a2.15,2.15,0,0,1,2.3,2.09,2.23,2.23,0,0,1-2.34,2.08,2.26,2.26,0,0,1-2.28-2.09A2.18,2.18,0,0,1,578.16,100.12Z"/><path class="cls-8" d="M564.32,102.69c.78.41,1.57.8,2.33,1.24.14.08.19.31.24.48.22.74.39,1.5.63,2.23a1.44,1.44,0,0,1-.18,1.36c-.36.55-.68,1.12-1,1.68h-.2l-2-6.88Z"/><path class="cls-1" d="M581.66,103.31c-.51-3.63-3.58-6.47-7.54-7.2l-.59-.13a10.14,10.14,0,0,0-2.89,0h0c-5.16.81-8.61,5.15-7.86,9.85s5.56,7.88,10.66,7.26S582.41,108.6,581.66,103.31Zm-15.53,6.36-2-6.88.17-.1c.78.41,1.57.8,2.33,1.24.14.08.19.31.24.48.22.74.39,1.5.63,2.23a1.44,1.44,0,0,1-.18,1.36c-.36.55-.68,1.12-1,1.68Zm12.66.59a1.14,1.14,0,0,1-1.65.17c-1.23-.85-2.42-1.75-3.69-2.54a1.78,1.78,0,0,1-.86-2.11c.2-1,.37-2.06.55-3.09a4.78,4.78,0,0,0,0-.57h-4.61l1.47.77c.53.28,1.07.53,1.57.84a.93.93,0,0,1,.4,1.4c-1.16,2-2.33,4-3.5,5.94a1,1,0,0,1-1.93-.66,2.76,2.76,0,0,1,.33-.77c.8-1.38,1.62-2.76,2.43-4.14.1-.16.17-.33.28-.54l-.62-.35-4.3-2.21c-.67-.34-.93-.78-.79-1.28a1.33,1.33,0,0,1,1.43-1h8.91c1,0,1.42.37,1.31,1.27-.17,1.31-.41,2.61-.68,3.91a1.15,1.15,0,0,0,.57,1.43c1,.66,2,1.41,3,2.13C579.07,109.29,579.18,109.81,578.79,110.26Zm-.67-6a2.26,2.26,0,0,1-2.28-2.09,2.18,2.18,0,0,1,2.32-2.08,2.15,2.15,0,0,1,2.3,2.09A2.23,2.23,0,0,1,578.12,104.29Z"/><path class="cls-9" d="M581.66,103.31c-.51-3.63-3.58-6.47-7.54-7.2l-.59-.13a10.14,10.14,0,0,0-2.89,0h0c-5.16.81-8.61,5.15-7.86,9.85s5.56,7.88,10.66,7.26S582.41,108.6,581.66,103.31Zm-15.53,6.36-2-6.88.17-.1c.78.41,1.57.8,2.33,1.24.14.08.19.31.24.48.22.74.39,1.5.63,2.23a1.44,1.44,0,0,1-.18,1.36c-.36.55-.68,1.12-1,1.68Zm12.66.59a1.14,1.14,0,0,1-1.65.17c-1.23-.85-2.42-1.75-3.69-2.54a1.78,1.78,0,0,1-.86-2.11c.2-1,.37-2.06.55-3.09a4.78,4.78,0,0,0,0-.57h-4.61l1.47.77c.53.28,1.07.53,1.57.84a.93.93,0,0,1,.4,1.4c-1.16,2-2.33,4-3.5,5.94a1,1,0,0,1-1.93-.66,2.76,2.76,0,0,1,.33-.77c.8-1.38,1.62-2.76,2.43-4.14.1-.16.17-.33.28-.54l-.62-.35-4.3-2.21c-.67-.34-.93-.78-.79-1.28a1.33,1.33,0,0,1,1.43-1h8.91c1,0,1.42.37,1.31,1.27-.17,1.31-.41,2.61-.68,3.91a1.15,1.15,0,0,0,.57,1.43c1,.66,2,1.41,3,2.13C579.07,109.29,579.18,109.81,578.79,110.26Zm-.67-6a2.26,2.26,0,0,1-2.28-2.09,2.18,2.18,0,0,1,2.32-2.08,2.15,2.15,0,0,1,2.3,2.09A2.23,2.23,0,0,1,578.12,104.29Z"/><path class="cls-10" d="M581.66,103.31c-.51-3.63-3.58-6.47-7.54-7.2l-.59-.13a10.14,10.14,0,0,0-2.89,0h0c-5.16.81-8.61,5.15-7.86,9.85s5.56,7.88,10.66,7.26S582.41,108.6,581.66,103.31Zm-15.53,6.36-2-6.88.17-.1c.78.41,1.57.8,2.33,1.24.14.08.19.31.24.48.22.74.39,1.5.63,2.23a1.44,1.44,0,0,1-.18,1.36c-.36.55-.68,1.12-1,1.68Zm12.66.59a1.14,1.14,0,0,1-1.65.17c-1.23-.85-2.42-1.75-3.69-2.54a1.78,1.78,0,0,1-.86-2.11c.2-1,.37-2.06.55-3.09a4.78,4.78,0,0,0,0-.57h-4.61l1.47.77c.53.28,1.07.53,1.57.84a.93.93,0,0,1,.4,1.4c-1.16,2-2.33,4-3.5,5.94a1,1,0,0,1-1.93-.66,2.76,2.76,0,0,1,.33-.77c.8-1.38,1.62-2.76,2.43-4.14.1-.16.17-.33.28-.54l-.62-.35-4.3-2.21c-.67-.34-.93-.78-.79-1.28a1.33,1.33,0,0,1,1.43-1h8.91c1,0,1.42.37,1.31,1.27-.17,1.31-.41,2.61-.68,3.91a1.15,1.15,0,0,0,.57,1.43c1,.66,2,1.41,3,2.13C579.07,109.29,579.18,109.81,578.79,110.26Zm-.67-6a2.26,2.26,0,0,1-2.28-2.09,2.18,2.18,0,0,1,2.32-2.08,2.15,2.15,0,0,1,2.3,2.09A2.23,2.23,0,0,1,578.12,104.29Z"/><polygon class="cls-1" points="143.44 103.41 136.07 146.54 165.83 146.54 172.14 103.86 143.44 103.41"/><polygon class="cls-1" points="209.12 103.75 171.06 122.94 203.84 146.92 238.86 147.28 201.46 123.26 240.89 103.45 209.12 103.75"/><path class="cls-1" d="M537.75,103.74l-35.9.31-46.79,40.51-3.4-.56,2.67-21.58s-29.56-1.39-39.56.47l-.6,4.94,18.63.77-1.11,10.75s-34.55,5.8-47-3.89c0,0-13.26-10.08,7.19-21.31,0,0,13-8.63,63.48-2.59l.28-3.66s-81-18.75-103.44,15.55c0,0-4.84-21.92-65.11-21.11,0,0-52.68,1.21-54.59,22.51,0,0-5.6,24,62.49,23.1,0,0,45.17.51,56.15-20.37l.51-1.43S353,136.21,365,141.51c0,0,16.84,6.6,47,5.76l39.87-.68,28.07-.34,13.85-13.37,40.06.17,9.73,13.37h26.95Zm-214,27.87c-2.37,2.39-5.84,4-9.06,5.27a49.44,49.44,0,0,1-13,3.13c-3.16.34-6.59.5-9.75.76,0-.05,0,0,0,0-6.68-.05-13.66-.55-20-2.64a32,32,0,0,1-10.68-6,11.16,11.16,0,0,1-3.55-7.77c.1-2.42,2.57-5.45,4.4-7.16,2.95-2.76,7.75-4.62,11.67-5.9a50.39,50.39,0,0,1,12-2.23c3.33-.25,6.55-.59,9.88-.52a58.3,58.3,0,0,1,20.42,3.74c3,1.2,6.46,3.05,8.6,5.37a12.57,12.57,0,0,1,2.94,7.16C327.63,127.17,325.44,129.91,323.76,131.61Zm176.61-4.91c4.77-4.66,13.37-13.14,18-17.69,3,4.56,8.7,13,11.77,17.69Z"/><path class="cls-11" d="M537.75,103.74l-35.9.31-46.79,40.51-3.4-.56,2.67-21.58s-29.56-1.39-39.56.47l-.6,4.94,18.63.77-1.11,10.75s-34.55,5.8-47-3.89c0,0-13.26-10.08,7.19-21.31,0,0,13-8.63,63.48-2.59l.28-3.66s-81-18.75-103.44,15.55c0,0-4.84-21.92-65.11-21.11,0,0-52.68,1.21-54.59,22.51,0,0-5.6,24,62.49,23.1,0,0,45.17.51,56.15-20.37l.51-1.43S353,136.21,365,141.51c0,0,16.84,6.6,47,5.76l39.87-.68,28.07-.34,13.85-13.37,40.06.17,9.73,13.37h26.95Zm-214,27.87c-2.37,2.39-5.84,4-9.06,5.27a49.44,49.44,0,0,1-13,3.13c-3.16.34-6.59.5-9.75.76,0-.05,0,0,0,0-6.68-.05-13.66-.55-20-2.64a32,32,0,0,1-10.68-6,11.16,11.16,0,0,1-3.55-7.77c.1-2.42,2.57-5.45,4.4-7.16,2.95-2.76,7.75-4.62,11.67-5.9a50.39,50.39,0,0,1,12-2.23c3.33-.25,6.55-.59,9.88-.52a58.3,58.3,0,0,1,20.42,3.74c3,1.2,6.46,3.05,8.6,5.37a12.57,12.57,0,0,1,2.94,7.16C327.63,127.17,325.44,129.91,323.76,131.61Zm176.61-4.91c4.77-4.66,13.37-13.14,18-17.69,3,4.56,8.7,13,11.77,17.69Z"/><polygon class="cls-12" points="143.44 103.41 136.07 146.54 165.83 146.54 172.14 103.86 143.44 103.41"/><polygon class="cls-13" points="209.12 103.75 171.06 122.94 203.84 146.92 238.86 147.28 201.46 123.26 240.89 103.45 209.12 103.75"/><g class="cls-14"><path class="cls-15" d="M537.75,103.74l-35.9.31-46.79,40.51-3.4-.56,2.67-21.58s-29.56-1.39-39.56.47l-.6,4.94,18.63.77-1.11,10.75s-34.55,5.8-47-3.89c0,0-13.26-10.08,7.19-21.31,0,0,13-8.63,63.48-2.59l.28-3.66s-81-18.75-103.44,15.55c0,0-4.84-21.92-65.11-21.11,0,0-52.68,1.21-54.59,22.51,0,0-5.6,24,62.49,23.1,0,0,45.17.51,56.15-20.37l.51-1.43S353,136.21,365,141.51c0,0,16.84,6.6,47,5.76l39.87-.68,28.07-.34,13.85-13.37,40.06.17,9.73,13.37h26.95Zm-214,27.87c-2.37,2.39-5.84,4-9.06,5.27a49.44,49.44,0,0,1-13,3.13c-3.16.34-6.59.5-9.75.76,0-.05,0,0,0,0-6.68-.05-13.66-.55-20-2.64a32,32,0,0,1-10.68-6,11.16,11.16,0,0,1-3.55-7.77c.1-2.42,2.57-5.45,4.4-7.16,2.95-2.76,7.75-4.62,11.67-5.9a50.39,50.39,0,0,1,12-2.23c3.33-.25,6.55-.59,9.88-.52a58.3,58.3,0,0,1,20.42,3.74c3,1.2,6.46,3.05,8.6,5.37a12.57,12.57,0,0,1,2.94,7.16C327.63,127.17,325.44,129.91,323.76,131.61Zm176.61-4.91c4.77-4.66,13.37-13.14,18-17.69,3,4.56,8.7,13,11.77,17.69Z"/><polygon class="cls-16" points="143.44 103.41 136.07 146.54 165.83 146.54 172.14 103.86 143.44 103.41"/><polygon class="cls-17" points="209.12 103.75 171.06 122.94 203.84 146.92 238.86 147.28 201.46 123.26 240.89 103.45 209.12 103.75"/></g><g class="cls-3"><path class="cls-4" d="M174.51,102.09c-1.08,6.36-2.16,12.66-3.25,19.1.39-.16.63-.24.85-.36l29.26-14.92c2.2-1.13,4.41-2.26,6.62-3.37a2.42,2.42,0,0,1,1-.23l7.74,0c2.67,0,5.34-.08,8-.12l6.79-.12,8-.13,7.26-.1a.79.79,0,0,1,.46.1l-42.58,21.3c12.78,8.73,25.85,16.8,38.73,25.31H203.64a2.25,2.25,0,0,1-1.51-.53c-7.42-6-15.17-11.66-23-17.26-2.59-1.86-5.2-3.69-7.8-5.54-.15-.11-.32-.2-.6-.39-.1.48-.19.86-.25,1.24-.37,2.82-.74,5.63-1.12,8.45s-.79,5.58-1.18,8.37c-.23,1.68-.49,3.36-.67,5-.06.53-.29.62-.81.62h-32c-.82,0-.82,0-.68-.78q.85-4.77,1.68-9.54.72-4,1.42-8.1c.52-3,1.05-6.08,1.57-9.13s1-6,1.55-9,1.06-6.17,1.57-9.25c.15-.91.12-.92,1.17-.91l16.22.13,14.73.12Z"/><path class="cls-5" d="M295.13,149.47h-9.34a3.18,3.18,0,0,0-.62-.06c-1.35-.06-2.71-.08-4.06-.15-2.19-.12-4.38-.18-6.55-.4-3.43-.34-6.86-.74-10.27-1.2A77.84,77.84,0,0,1,247,143.35a36.84,36.84,0,0,1-10.82-5.89c-5-4.22-6.69-9.37-5-15.34,1.13-4,4-7,7.51-9.45A49.46,49.46,0,0,1,254,105.88a125.59,125.59,0,0,1,24-4.16c3.73-.32,7.48-.54,11.22-.61a160.77,160.77,0,0,1,16.28.32c3.19.27,6.38.53,9.56.86a90.66,90.66,0,0,1,15,2.84,53.15,53.15,0,0,1,14.48,6.15c3.52,2.27,6.38,5,7.67,8.88a1.12,1.12,0,0,0,.22.26c.5-.72.93-1.41,1.43-2.06a29.87,29.87,0,0,1,10.11-8,77.34,77.34,0,0,1,24.94-7.49c4.07-.58,8.19-.93,12.3-1.26,3.26-.26,6.54-.4,9.81-.46a109.85,109.85,0,0,1,13.21.33c2.58.27,5.17.46,7.73.79,3.64.46,7.28,1,10.89,1.56,4.88.8,9.75,1.69,14.62,2.52.52.09.67.28.65.73-.07,1.69-.09,3.39-.16,5.09a12.66,12.66,0,0,1-.16,1.33l-7.47-.69c-3.23-.29-6.46-.59-9.7-.83-2.63-.2-5.27-.37-7.91-.48-3.67-.16-7.36-.3-11-.36-2,0-4,0-6,.21-3.42.28-6.84.55-10.22,1a44.85,44.85,0,0,0-13.32,3.79,17.42,17.42,0,0,0-7.57,6.06c-2.1,3.28-2.46,6.64-.16,10a12.69,12.69,0,0,0,6.12,4.41,46.88,46.88,0,0,0,14.11,2.71c2.36.15,4.75.2,7.12.12,3.18-.1,6.35-.34,9.52-.58,2.68-.2,5.34-.5,8-.72.51-.05.63-.28.68-.67q.38-3.28.78-6.57c.05-.39-.11-.5-.51-.51-1.72-.06-3.43-.15-5.15-.21-2.78-.1-5.55-.17-8.33-.26-1.31,0-2.62-.09-3.93-.11-.49,0-.72-.13-.65-.61.11-.81.18-1.62.28-2.43.18-1.63.35-3.25.57-4.87,0-.14.3-.34.48-.36,1.09-.15,2.19-.3,3.29-.37,3.11-.18,6.22-.37,9.33-.48,2.53-.1,5.07-.12,7.6-.13,1.81,0,3.62.06,5.43.08,2.89,0,5.79.07,8.68.13,2.64.06,5.29.15,7.93.24.94,0,1,.12.81,1-.32,1.85-.64,3.7-.9,5.57-.31,2.2-.58,4.41-.84,6.62s-.53,4.67-.78,7c0,.39,0,.79,0,1.31.27-.21.44-.33.6-.47,5-4.35,10-8.69,15-13q15.15-13.2,30.3-26.42a1.75,1.75,0,0,1,1.06-.4c3.66-.07,7.33-.11,11-.14l16.3-.12c3.17,0,6.34,0,9.5,0a1.65,1.65,0,0,1,1.51.68c2.57,3.27,5.18,6.51,7.77,9.76l28,35.16c.28.34.53.69.86,1.12h-2.48q-15.29,0-30.57,0c-.48,0-.87,0-1.16-.51A110.35,110.35,0,0,0,533,135.71a1.14,1.14,0,0,0-1-.47q-18.24,0-36.47,0a1.62,1.62,0,0,0-1,.42q-6.27,6.18-12.47,12.4a1.44,1.44,0,0,1-1.17.47c-2.62,0-5.25,0-7.88,0-9.91,0-19.82,0-29.74.13-2.86,0-5.73.24-8.59.35q-4,.15-7.93.25c-2.76.07-5.52.1-8.28.16a2.85,2.85,0,0,0-.63.14H406.23a5.19,5.19,0,0,0-.77-.14c-3.07-.13-6.14-.2-9.21-.39-3.51-.23-7-.45-10.51-.89-3.9-.49-7.79-1.11-11.64-1.87a42.2,42.2,0,0,1-13-4.67c-4.41-2.54-7.88-5.8-9.63-10.37a1.31,1.31,0,0,0-.2-.28c-.08,0-.13.05-.15.08a1,1,0,0,0-.15.2,23,23,0,0,1-8.55,8.32A59.14,59.14,0,0,1,325,146.18a102.59,102.59,0,0,1-12.84,2.11c-2.95.3-5.91.61-8.88.82-2.41.17-4.83.2-7.24.3A6.65,6.65,0,0,0,295.13,149.47Zm-3.3-9.9c0,.05,0,0,0,0,3.17-.25,6.34-.45,9.5-.79a50.3,50.3,0,0,0,13-3.14,24.26,24.26,0,0,0,8.59-5.25,8.57,8.57,0,0,0,2.83-5.95,7.94,7.94,0,0,0-2.4-5.6,21.17,21.17,0,0,0-7.91-5,56.16,56.16,0,0,0-20-3.66c-3.34-.07-6.68.18-10,.44A50.79,50.79,0,0,0,273.38,113a27.65,27.65,0,0,0-10.56,5.72,9,9,0,0,0-3.2,6.13c-.11,2.54,1.13,4.63,3,6.42a25,25,0,0,0,9.6,5.27A63.54,63.54,0,0,0,291.83,139.57ZM504,125.31h23.19L518,111.56Z"/></g><g class="cls-3"><path class="cls-4" d="M174.51,102.09c-1.08,6.36-2.16,12.66-3.25,19.1.39-.16.63-.24.85-.36l29.26-14.92c2.2-1.13,4.41-2.26,6.62-3.37a2.42,2.42,0,0,1,1-.23l7.74,0c2.67,0,5.34-.08,8-.12l6.79-.12,8-.13,7.26-.1a.79.79,0,0,1,.46.1l-42.58,21.3c12.78,8.73,25.85,16.8,38.73,25.31H203.64a2.25,2.25,0,0,1-1.51-.53c-7.42-6-15.17-11.66-23-17.26-2.59-1.86-5.2-3.69-7.8-5.54-.15-.11-.32-.2-.6-.39-.1.48-.19.86-.25,1.24-.37,2.82-.74,5.63-1.12,8.45s-.79,5.58-1.18,8.37c-.23,1.68-.49,3.36-.67,5-.06.53-.29.62-.81.62h-32c-.82,0-.82,0-.68-.78q.85-4.77,1.68-9.54.72-4,1.42-8.1c.52-3,1.05-6.08,1.57-9.13s1-6,1.55-9,1.06-6.17,1.57-9.25c.15-.91.12-.92,1.17-.91l16.22.13,14.73.12Z"/><path class="cls-5" d="M295.13,149.47h-9.34a3.18,3.18,0,0,0-.62-.06c-1.35-.06-2.71-.08-4.06-.15-2.19-.12-4.38-.18-6.55-.4-3.43-.34-6.86-.74-10.27-1.2A77.84,77.84,0,0,1,247,143.35a36.84,36.84,0,0,1-10.82-5.89c-5-4.22-6.69-9.37-5-15.34,1.13-4,4-7,7.51-9.45A49.46,49.46,0,0,1,254,105.88a125.59,125.59,0,0,1,24-4.16c3.73-.32,7.48-.54,11.22-.61a160.77,160.77,0,0,1,16.28.32c3.19.27,6.38.53,9.56.86a90.66,90.66,0,0,1,15,2.84,53.15,53.15,0,0,1,14.48,6.15c3.52,2.27,6.38,5,7.67,8.88a1.12,1.12,0,0,0,.22.26c.5-.72.93-1.41,1.43-2.06a29.87,29.87,0,0,1,10.11-8,77.34,77.34,0,0,1,24.94-7.49c4.07-.58,8.19-.93,12.3-1.26,3.26-.26,6.54-.4,9.81-.46a109.85,109.85,0,0,1,13.21.33c2.58.27,5.17.46,7.73.79,3.64.46,7.28,1,10.89,1.56,4.88.8,9.75,1.69,14.62,2.52.52.09.67.28.65.73-.07,1.69-.09,3.39-.16,5.09a12.66,12.66,0,0,1-.16,1.33l-7.47-.69c-3.23-.29-6.46-.59-9.7-.83-2.63-.2-5.27-.37-7.91-.48-3.67-.16-7.36-.3-11-.36-2,0-4,0-6,.21-3.42.28-6.84.55-10.22,1a44.85,44.85,0,0,0-13.32,3.79,17.42,17.42,0,0,0-7.57,6.06c-2.1,3.28-2.46,6.64-.16,10a12.69,12.69,0,0,0,6.12,4.41,46.88,46.88,0,0,0,14.11,2.71c2.36.15,4.75.2,7.12.12,3.18-.1,6.35-.34,9.52-.58,2.68-.2,5.34-.5,8-.72.51-.05.63-.28.68-.67q.38-3.28.78-6.57c.05-.39-.11-.5-.51-.51-1.72-.06-3.43-.15-5.15-.21-2.78-.1-5.55-.17-8.33-.26-1.31,0-2.62-.09-3.93-.11-.49,0-.72-.13-.65-.61.11-.81.18-1.62.28-2.43.18-1.63.35-3.25.57-4.87,0-.14.3-.34.48-.36,1.09-.15,2.19-.3,3.29-.37,3.11-.18,6.22-.37,9.33-.48,2.53-.1,5.07-.12,7.6-.13,1.81,0,3.62.06,5.43.08,2.89,0,5.79.07,8.68.13,2.64.06,5.29.15,7.93.24.94,0,1,.12.81,1-.32,1.85-.64,3.7-.9,5.57-.31,2.2-.58,4.41-.84,6.62s-.53,4.67-.78,7c0,.39,0,.79,0,1.31.27-.21.44-.33.6-.47,5-4.35,10-8.69,15-13q15.15-13.2,30.3-26.42a1.75,1.75,0,0,1,1.06-.4c3.66-.07,7.33-.11,11-.14l16.3-.12c3.17,0,6.34,0,9.5,0a1.65,1.65,0,0,1,1.51.68c2.57,3.27,5.18,6.51,7.77,9.76l28,35.16c.28.34.53.69.86,1.12h-2.48q-15.29,0-30.57,0c-.48,0-.87,0-1.16-.51A110.35,110.35,0,0,0,533,135.71a1.14,1.14,0,0,0-1-.47q-18.24,0-36.47,0a1.62,1.62,0,0,0-1,.42q-6.27,6.18-12.47,12.4a1.44,1.44,0,0,1-1.17.47c-2.62,0-5.25,0-7.88,0-9.91,0-19.82,0-29.74.13-2.86,0-5.73.24-8.59.35q-4,.15-7.93.25c-2.76.07-5.52.1-8.28.16a2.85,2.85,0,0,0-.63.14H406.23a5.19,5.19,0,0,0-.77-.14c-3.07-.13-6.14-.2-9.21-.39-3.51-.23-7-.45-10.51-.89-3.9-.49-7.79-1.11-11.64-1.87a42.2,42.2,0,0,1-13-4.67c-4.41-2.54-7.88-5.8-9.63-10.37a1.31,1.31,0,0,0-.2-.28c-.08,0-.13.05-.15.08a1,1,0,0,0-.15.2,23,23,0,0,1-8.55,8.32A59.14,59.14,0,0,1,325,146.18a102.59,102.59,0,0,1-12.84,2.11c-2.95.3-5.91.61-8.88.82-2.41.17-4.83.2-7.24.3A6.65,6.65,0,0,0,295.13,149.47Zm-3.3-9.9c0,.05,0,0,0,0,3.17-.25,6.34-.45,9.5-.79a50.3,50.3,0,0,0,13-3.14,24.26,24.26,0,0,0,8.59-5.25,8.57,8.57,0,0,0,2.83-5.95,7.94,7.94,0,0,0-2.4-5.6,21.17,21.17,0,0,0-7.91-5,56.16,56.16,0,0,0-20-3.66c-3.34-.07-6.68.18-10,.44A50.79,50.79,0,0,0,273.38,113a27.65,27.65,0,0,0-10.56,5.72,9,9,0,0,0-3.2,6.13c-.11,2.54,1.13,4.63,3,6.42a25,25,0,0,0,9.6,5.27A63.54,63.54,0,0,0,291.83,139.57ZM504,125.31h23.19L518,111.56Z"/></g></svg>
