<svg id="Layer_1" data-name="Layer 1" xmlns="http://www.w3.org/2000/svg" xmlns:xlink="http://www.w3.org/1999/xlink" viewBox="0 0 1440 594"><defs><style>.cls-1{fill:#0084cc;}.cls-2{fill:#fff;}.cls-3{fill:url(#linear-gradient);}.cls-4{opacity:0.5;}.cls-5{fill:url(#linear-gradient-2);}.cls-6{fill:url(#linear-gradient-3);}.cls-7{fill:url(#linear-gradient-4);}.cls-8{fill:url(#linear-gradient-5);}.cls-9{fill:url(#linear-gradient-6);}.cls-10{fill:url(#linear-gradient-7);}.cls-11{fill:url(#linear-gradient-8);}.cls-12{fill:url(#linear-gradient-9);}.cls-13{fill:url(#linear-gradient-10);}.cls-14{opacity:0.6;}.cls-15{fill:url(#linear-gradient-11);}.cls-16{fill:url(#linear-gradient-12);}.cls-17{fill:url(#linear-gradient-13);}</style><linearGradient id="linear-gradient" x1="594.21" y1="275.29" x2="939.57" y2="275.29" gradientUnits="userSpaceOnUse"><stop offset="0" stop-opacity="0.1"/><stop offset="1" stop-color="#fff" stop-opacity="0.1"/></linearGradient><linearGradient id="linear-gradient-2" x1="553.86" y1="252.87" x2="554.62" y2="304.11" gradientUnits="userSpaceOnUse"><stop offset="0" stop-opacity="0.1"/><stop offset="0.48" stop-color="#fff" stop-opacity="0.2"/><stop offset="1" stop-opacity="0.2"/></linearGradient><linearGradient id="linear-gradient-3" x1="766.33" y1="249.7" x2="767.09" y2="300.94" xlink:href="#linear-gradient-2"/><linearGradient id="linear-gradient-4" x1="925.21" y1="254.55" x2="946.44" y2="254.55" gradientUnits="userSpaceOnUse"><stop offset="0" stop-color="#fff" stop-opacity="0.1"/><stop offset="1" stop-opacity="0.1"/></linearGradient><linearGradient id="linear-gradient-5" x1="943.85" y1="246.59" x2="928.03" y2="262.35" gradientUnits="userSpaceOnUse"><stop offset="0" stop-opacity="0.1"/><stop offset="0.52" stop-color="#fff" stop-opacity="0.2"/><stop offset="1" stop-opacity="0.2"/></linearGradient><linearGradient id="linear-gradient-6" x1="926.27" y1="254.55" x2="945.37" y2="254.55" xlink:href="#linear-gradient"/><linearGradient id="linear-gradient-7" x1="922.1" y1="254.15" x2="947.77" y2="254.89" gradientUnits="userSpaceOnUse"><stop offset="0" stop-opacity="0.2"/><stop offset="0.52" stop-color="#fff" stop-opacity="0.2"/><stop offset="1" stop-opacity="0.1"/></linearGradient><linearGradient id="linear-gradient-8" x1="596.05" y1="275.14" x2="934.17" y2="275.14" xlink:href="#linear-gradient-4"/><linearGradient id="linear-gradient-9" x1="499.69" y1="274.97" x2="535.76" y2="274.97" xlink:href="#linear-gradient-4"/><linearGradient id="linear-gradient-10" x1="534.69" y1="275.36" x2="604.51" y2="275.36" xlink:href="#linear-gradient"/><linearGradient id="linear-gradient-11" x1="482.15" y1="267.79" x2="928.8" y2="280.02" xlink:href="#linear-gradient-2"/><linearGradient id="linear-gradient-12" x1="481.98" y1="274.22" x2="928.62" y2="286.45" xlink:href="#linear-gradient-2"/><linearGradient id="linear-gradient-13" x1="482.03" y1="272.33" x2="928.67" y2="284.57" xlink:href="#linear-gradient-2"/></defs><title>KOGAhist</title><rect class="cls-1" width="1440" height="594"/><path class="cls-2" d="M538.13,252.08c-1.08,6.37-2.16,12.66-3.25,19.11.39-.17.63-.25.85-.37L565,255.9c2.2-1.13,4.41-2.26,6.62-3.36a2.3,2.3,0,0,1,1-.23c2.58,0,5.16,0,7.74,0s5.34-.08,8-.12l6.79-.12,8-.13,7.26-.1a.79.79,0,0,1,.46.1l-42.58,21.3C581,281.93,594.09,290,607,298.52h-.79q-19.45,0-38.92,0a2.18,2.18,0,0,1-1.5-.54c-7.43-6-15.18-11.66-23-17.26-2.59-1.86-5.19-3.69-7.79-5.53l-.61-.39c-.09.47-.19.85-.24,1.23-.38,2.82-.75,5.64-1.13,8.45s-.79,5.58-1.18,8.37c-.23,1.68-.49,3.36-.67,5.05-.06.53-.29.62-.81.62q-8.49,0-17,0H498.3c-.82,0-.82,0-.68-.78.57-3.18,1.13-6.37,1.69-9.55l1.41-8.1c.52-3,1-6.08,1.57-9.12s1-6,1.55-9,1.06-6.16,1.57-9.25c.15-.91.12-.91,1.17-.91l16.22.13,14.73.12Z"/><path class="cls-2" d="M658.75,299.47h-9.34a3.18,3.18,0,0,0-.62-.07c-1.35-.06-2.71-.08-4.06-.15-2.19-.11-4.38-.18-6.55-.4-3.43-.34-6.86-.73-10.27-1.2a77.29,77.29,0,0,1-17.25-4.31,36.84,36.84,0,0,1-10.82-5.89c-5-4.22-6.69-9.37-5-15.34,1.14-4,4-7,7.51-9.45a49.69,49.69,0,0,1,15.25-6.79,126.38,126.38,0,0,1,23.95-4.16c3.73-.32,7.48-.53,11.23-.61a157.77,157.77,0,0,1,16.27.33c3.19.26,6.38.53,9.56.86a89.62,89.62,0,0,1,15,2.83,52.86,52.86,0,0,1,14.48,6.16c3.52,2.26,6.38,5,7.67,8.87a1.12,1.12,0,0,0,.22.26c.5-.71.93-1.41,1.43-2.05a29.89,29.89,0,0,1,10.11-8.06,77.33,77.33,0,0,1,24.94-7.48c4.07-.59,8.19-.94,12.3-1.26,3.26-.26,6.54-.41,9.81-.47a107.82,107.82,0,0,1,13.21.34c2.58.27,5.17.45,7.74.78,3.63.47,7.27,1,10.88,1.57,4.88.79,9.75,1.69,14.62,2.52.52.09.67.27.65.72-.07,1.7-.09,3.39-.16,5.09a12.35,12.35,0,0,1-.16,1.33l-7.47-.69c-3.23-.29-6.46-.59-9.7-.83-2.63-.2-5.27-.36-7.9-.48-3.68-.15-7.37-.3-11-.36-2,0-4,.06-6,.22-3.42.27-6.84.54-10.22,1a44.85,44.85,0,0,0-13.32,3.79,17.49,17.49,0,0,0-7.57,6.06c-2.1,3.29-2.46,6.64-.15,10a12.59,12.59,0,0,0,6.12,4.41,47.08,47.08,0,0,0,14.1,2.72c2.37.15,4.75.19,7.12.12,3.18-.11,6.35-.35,9.53-.59,2.67-.2,5.33-.5,8-.72.52,0,.63-.28.68-.66q.38-3.29.78-6.57c.05-.39-.11-.5-.51-.52-1.72-.06-3.43-.15-5.15-.21l-8.33-.26c-1.31,0-2.62-.09-3.93-.11-.49,0-.72-.13-.65-.6.11-.81.18-1.63.28-2.44.18-1.62.35-3.25.57-4.87,0-.14.3-.33.48-.36,1.09-.14,2.19-.29,3.29-.36,3.11-.19,6.22-.37,9.33-.49,2.53-.1,5.07-.12,7.6-.13,1.81,0,3.62.06,5.43.09,2.89,0,5.79.06,8.68.13,2.64.05,5.29.14,7.93.24.94,0,.95.11.81,1-.32,1.85-.63,3.71-.9,5.57-.31,2.2-.58,4.41-.84,6.63s-.53,4.66-.78,7c0,.39,0,.78,0,1.31l.6-.47c5-4.35,10-8.69,15-13.05q15.15-13.22,30.3-26.43a1.82,1.82,0,0,1,1.06-.4c3.67-.07,7.33-.1,11-.13q8.16-.08,16.3-.13c3.17,0,6.34,0,9.51,0a1.67,1.67,0,0,1,1.5.68c2.57,3.27,5.18,6.51,7.77,9.77l28,35.15c.27.34.52.69.85,1.13h-2.48l-30.56,0c-.49,0-.88,0-1.17-.5a111.4,111.4,0,0,0-8.76-12.34,1.16,1.16,0,0,0-1-.47l-36.47,0a1.66,1.66,0,0,0-1,.41q-6.27,6.18-12.47,12.41a1.46,1.46,0,0,1-1.17.46q-3.93,0-7.88,0c-9.91,0-19.82.05-29.74.13-2.86,0-5.73.24-8.59.34-2.64.1-5.29.19-7.93.25s-5.52.1-8.28.16a3.6,3.6,0,0,0-.63.15H769.85a5.23,5.23,0,0,0-.77-.15c-3.07-.13-6.14-.2-9.21-.39-3.51-.23-7-.45-10.5-.89q-5.86-.74-11.65-1.87a42.18,42.18,0,0,1-13-4.66c-4.41-2.54-7.88-5.81-9.63-10.38a1.62,1.62,0,0,0-.2-.28l-.15.08a1,1,0,0,0-.15.21,23,23,0,0,1-8.55,8.31,58.6,58.6,0,0,1-17.47,6.64,102.29,102.29,0,0,1-12.84,2.11c-3,.3-5.91.61-8.88.82-2.41.18-4.83.2-7.24.3A6.67,6.67,0,0,0,658.75,299.47Zm-3.3-9.9h0c3.17-.26,6.34-.46,9.5-.79a50.31,50.31,0,0,0,13-3.15,24.12,24.12,0,0,0,8.59-5.25,8.57,8.57,0,0,0,2.83-5.95,8,8,0,0,0-2.39-5.6,21.29,21.29,0,0,0-7.92-5.05,56.16,56.16,0,0,0-20-3.66c-3.33-.06-6.68.19-10,.44A51.29,51.29,0,0,0,637,263a27.79,27.79,0,0,0-10.56,5.72,9,9,0,0,0-3.2,6.13c-.11,2.54,1.13,4.63,3,6.43a25.14,25.14,0,0,0,9.6,5.26A63.85,63.85,0,0,0,655.45,289.57ZM867.57,275.3h23.19l-9.11-13.75Z"/><path class="cls-3" d="M658.75,299.47h-9.34a3.18,3.18,0,0,0-.62-.07c-1.35-.06-2.71-.08-4.06-.15-2.19-.11-4.38-.18-6.55-.4-3.43-.34-6.86-.73-10.27-1.2a77.29,77.29,0,0,1-17.25-4.31,36.84,36.84,0,0,1-10.82-5.89c-5-4.22-6.69-9.37-5-15.34,1.14-4,4-7,7.51-9.45a49.69,49.69,0,0,1,15.25-6.79,126.38,126.38,0,0,1,23.95-4.16c3.73-.32,7.48-.53,11.23-.61a157.77,157.77,0,0,1,16.27.33c3.19.26,6.38.53,9.56.86a89.62,89.62,0,0,1,15,2.83,52.86,52.86,0,0,1,14.48,6.16c3.52,2.26,6.38,5,7.67,8.87a1.12,1.12,0,0,0,.22.26c.5-.71.93-1.41,1.43-2.05a29.89,29.89,0,0,1,10.11-8.06,77.33,77.33,0,0,1,24.94-7.48c4.07-.59,8.19-.94,12.3-1.26,3.26-.26,6.54-.41,9.81-.47a107.82,107.82,0,0,1,13.21.34c2.58.27,5.17.45,7.74.78,3.63.47,7.27,1,10.88,1.57,4.88.79,9.75,1.69,14.62,2.52.52.09.67.27.65.72-.07,1.7-.09,3.39-.16,5.09a12.35,12.35,0,0,1-.16,1.33l-7.47-.69c-3.23-.29-6.46-.59-9.7-.83-2.63-.2-5.27-.36-7.9-.48-3.68-.15-7.37-.3-11-.36-2,0-4,.06-6,.22-3.42.27-6.84.54-10.22,1a44.85,44.85,0,0,0-13.32,3.79,17.49,17.49,0,0,0-7.57,6.06c-2.1,3.29-2.46,6.64-.15,10a12.59,12.59,0,0,0,6.12,4.41,47.08,47.08,0,0,0,14.1,2.72c2.37.15,4.75.19,7.12.12,3.18-.11,6.35-.35,9.53-.59,2.67-.2,5.33-.5,8-.72.52,0,.63-.28.68-.66q.38-3.29.78-6.57c.05-.39-.11-.5-.51-.52-1.72-.06-3.43-.15-5.15-.21l-8.33-.26c-1.31,0-2.62-.09-3.93-.11-.49,0-.72-.13-.65-.6.11-.81.18-1.63.28-2.44.18-1.62.35-3.25.57-4.87,0-.14.3-.33.48-.36,1.09-.14,2.19-.29,3.29-.36,3.11-.19,6.22-.37,9.33-.49,2.53-.1,5.07-.12,7.6-.13,1.81,0,3.62.06,5.43.09,2.89,0,5.79.06,8.68.13,2.64.05,5.29.14,7.93.24.94,0,.95.11.81,1-.32,1.85-.63,3.71-.9,5.57-.31,2.2-.58,4.41-.84,6.63s-.53,4.66-.78,7c0,.39,0,.78,0,1.31l.6-.47c5-4.35,10-8.69,15-13.05q15.15-13.22,30.3-26.43a1.82,1.82,0,0,1,1.06-.4c3.67-.07,7.33-.1,11-.13q8.16-.08,16.3-.13c3.17,0,6.34,0,9.51,0a1.67,1.67,0,0,1,1.5.68c2.57,3.27,5.18,6.51,7.77,9.77l28,35.15c.27.34.52.69.85,1.13h-2.48l-30.56,0c-.49,0-.88,0-1.17-.5a111.4,111.4,0,0,0-8.76-12.34,1.16,1.16,0,0,0-1-.47l-36.47,0a1.66,1.66,0,0,0-1,.41q-6.27,6.18-12.47,12.41a1.46,1.46,0,0,1-1.17.46q-3.93,0-7.88,0c-9.91,0-19.82.05-29.74.13-2.86,0-5.73.24-8.59.34-2.64.1-5.29.19-7.93.25s-5.52.1-8.28.16a3.6,3.6,0,0,0-.63.15H769.85a5.23,5.23,0,0,0-.77-.15c-3.07-.13-6.14-.2-9.21-.39-3.51-.23-7-.45-10.5-.89q-5.86-.74-11.65-1.87a42.18,42.18,0,0,1-13-4.66c-4.41-2.54-7.88-5.81-9.63-10.38a1.62,1.62,0,0,0-.2-.28l-.15.08a1,1,0,0,0-.15.21,23,23,0,0,1-8.55,8.31,58.6,58.6,0,0,1-17.47,6.64,102.29,102.29,0,0,1-12.84,2.11c-3,.3-5.91.61-8.88.82-2.41.18-4.83.2-7.24.3A6.67,6.67,0,0,0,658.75,299.47Zm-3.3-9.9h0c3.17-.26,6.34-.46,9.5-.79a50.31,50.31,0,0,0,13-3.15,24.12,24.12,0,0,0,8.59-5.25,8.57,8.57,0,0,0,2.83-5.95,8,8,0,0,0-2.39-5.6,21.29,21.29,0,0,0-7.92-5.05,56.16,56.16,0,0,0-20-3.66c-3.33-.06-6.68.19-10,.44A51.29,51.29,0,0,0,637,263a27.79,27.79,0,0,0-10.56,5.72,9,9,0,0,0-3.2,6.13c-.11,2.54,1.13,4.63,3,6.43a25.14,25.14,0,0,0,9.6,5.26A63.85,63.85,0,0,0,655.45,289.57ZM867.57,275.3h23.19l-9.11-13.75Z"/><g class="cls-4"><path class="cls-5" d="M538.13,252.08c-1.08,6.37-2.16,12.66-3.25,19.11.39-.17.63-.25.85-.37L565,255.9c2.2-1.13,4.41-2.26,6.62-3.36a2.3,2.3,0,0,1,1-.23c2.58,0,5.16,0,7.74,0s5.34-.08,8-.12l6.79-.12,8-.13,7.26-.1a.79.79,0,0,1,.46.1l-42.58,21.3C581,281.93,594.09,290,607,298.52h-.79q-19.45,0-38.92,0a2.18,2.18,0,0,1-1.5-.54c-7.43-6-15.18-11.66-23-17.26-2.59-1.86-5.19-3.69-7.79-5.53l-.61-.39c-.09.47-.19.85-.24,1.23-.38,2.82-.75,5.64-1.13,8.45s-.79,5.58-1.18,8.37c-.23,1.68-.49,3.36-.67,5.05-.06.53-.29.62-.81.62q-8.49,0-17,0H498.3c-.82,0-.82,0-.68-.78.57-3.18,1.13-6.37,1.69-9.55l1.41-8.1c.52-3,1-6.08,1.57-9.12s1-6,1.55-9,1.06-6.16,1.57-9.25c.15-.91.12-.91,1.17-.91l16.22.13,14.73.12Z"/><path class="cls-6" d="M658.75,299.47h-9.34a3.18,3.18,0,0,0-.62-.07c-1.35-.06-2.71-.08-4.06-.15-2.19-.11-4.38-.18-6.55-.4-3.43-.34-6.86-.73-10.27-1.2a77.29,77.29,0,0,1-17.25-4.31,36.84,36.84,0,0,1-10.82-5.89c-5-4.22-6.69-9.37-5-15.34,1.14-4,4-7,7.51-9.45a49.69,49.69,0,0,1,15.25-6.79,126.38,126.38,0,0,1,23.95-4.16c3.73-.32,7.48-.53,11.23-.61a157.77,157.77,0,0,1,16.27.33c3.19.26,6.38.53,9.56.86a89.62,89.62,0,0,1,15,2.83,52.86,52.86,0,0,1,14.48,6.16c3.52,2.26,6.38,5,7.67,8.87a1.12,1.12,0,0,0,.22.26c.5-.71.93-1.41,1.43-2.05a29.89,29.89,0,0,1,10.11-8.06,77.33,77.33,0,0,1,24.94-7.48c4.07-.59,8.19-.94,12.3-1.26,3.26-.26,6.54-.41,9.81-.47a107.82,107.82,0,0,1,13.21.34c2.58.27,5.17.45,7.74.78,3.63.47,7.27,1,10.88,1.57,4.88.79,9.75,1.69,14.62,2.52.52.09.67.27.65.72-.07,1.7-.09,3.39-.16,5.09a12.35,12.35,0,0,1-.16,1.33l-7.47-.69c-3.23-.29-6.46-.59-9.7-.83-2.63-.2-5.27-.36-7.9-.48-3.68-.15-7.37-.3-11-.36-2,0-4,.06-6,.22-3.42.27-6.84.54-10.22,1a44.85,44.85,0,0,0-13.32,3.79,17.49,17.49,0,0,0-7.57,6.06c-2.1,3.29-2.46,6.64-.15,10a12.59,12.59,0,0,0,6.12,4.41,47.08,47.08,0,0,0,14.1,2.72c2.37.15,4.75.19,7.12.12,3.18-.11,6.35-.35,9.53-.59,2.67-.2,5.33-.5,8-.72.52,0,.63-.28.68-.66q.38-3.29.78-6.57c.05-.39-.11-.5-.51-.52-1.72-.06-3.43-.15-5.15-.21l-8.33-.26c-1.31,0-2.62-.09-3.93-.11-.49,0-.72-.13-.65-.6.11-.81.18-1.63.28-2.44.18-1.62.35-3.25.57-4.87,0-.14.3-.33.48-.36,1.09-.14,2.19-.29,3.29-.36,3.11-.19,6.22-.37,9.33-.49,2.53-.1,5.07-.12,7.6-.13,1.81,0,3.62.06,5.43.09,2.89,0,5.79.06,8.68.13,2.64.05,5.29.14,7.93.24.94,0,.95.11.81,1-.32,1.85-.63,3.71-.9,5.57-.31,2.2-.58,4.41-.84,6.63s-.53,4.66-.78,7c0,.39,0,.78,0,1.31l.6-.47c5-4.35,10-8.69,15-13.05q15.15-13.22,30.3-26.43a1.82,1.82,0,0,1,1.06-.4c3.67-.07,7.33-.1,11-.13q8.16-.08,16.3-.13c3.17,0,6.34,0,9.51,0a1.67,1.67,0,0,1,1.5.68c2.57,3.27,5.18,6.51,7.77,9.77l28,35.15c.27.34.52.69.85,1.13h-2.48l-30.56,0c-.49,0-.88,0-1.17-.5a111.4,111.4,0,0,0-8.76-12.34,1.16,1.16,0,0,0-1-.47l-36.47,0a1.66,1.66,0,0,0-1,.41q-6.27,6.18-12.47,12.41a1.46,1.46,0,0,1-1.17.46q-3.93,0-7.88,0c-9.91,0-19.82.05-29.74.13-2.86,0-5.73.24-8.59.34-2.64.1-5.29.19-7.93.25s-5.52.1-8.28.16a3.6,3.6,0,0,0-.63.15H769.85a5.23,5.23,0,0,0-.77-.15c-3.07-.13-6.14-.2-9.21-.39-3.51-.23-7-.45-10.5-.89q-5.86-.74-11.65-1.87a42.18,42.18,0,0,1-13-4.66c-4.41-2.54-7.88-5.81-9.63-10.38a1.62,1.62,0,0,0-.2-.28l-.15.08a1,1,0,0,0-.15.21,23,23,0,0,1-8.55,8.31,58.6,58.6,0,0,1-17.47,6.64,102.29,102.29,0,0,1-12.84,2.11c-3,.3-5.91.61-8.88.82-2.41.18-4.83.2-7.24.3A6.67,6.67,0,0,0,658.75,299.47Zm-3.3-9.9h0c3.17-.26,6.34-.46,9.5-.79a50.31,50.31,0,0,0,13-3.15,24.12,24.12,0,0,0,8.59-5.25,8.57,8.57,0,0,0,2.83-5.95,8,8,0,0,0-2.39-5.6,21.29,21.29,0,0,0-7.92-5.05,56.16,56.16,0,0,0-20-3.66c-3.33-.06-6.68.19-10,.44A51.29,51.29,0,0,0,637,263a27.79,27.79,0,0,0-10.56,5.72,9,9,0,0,0-3.2,6.13c-.11,2.54,1.13,4.63,3,6.43a25.14,25.14,0,0,0,9.6,5.26A63.85,63.85,0,0,0,655.45,289.57ZM867.57,275.3h23.19l-9.11-13.75Z"/></g><path d="M936.66,244.88c.43.09.86.19,1.3.27,4.41.82,7.82,4,8.39,8,.83,5.88-3.63,10.25-9.17,10.93s-11-3-11.86-8.08c-.83-5.23,3-10,8.74-10.95l1-.19Zm.25,7a4,4,0,0,1,0,.63c-.2,1.15-.39,2.3-.62,3.44a2,2,0,0,0,1,2.35c1.42.88,2.74,1.88,4.11,2.82a1.26,1.26,0,0,0,1.83-.19c.43-.5.31-1.07-.34-1.54-1.11-.8-2.2-1.64-3.37-2.38a1.28,1.28,0,0,1-.64-1.59c.3-1.44.57-2.89.76-4.34.12-1-.34-1.4-1.45-1.41-3.31,0-6.61,0-9.92,0a1.46,1.46,0,0,0-1.58,1.09c-.16.57.13,1.05.87,1.43,1.59.83,3.19,1.64,4.78,2.46l.7.39c-.12.23-.21.42-.31.6l-2.71,4.6a3.11,3.11,0,0,0-.37.86,1.07,1.07,0,0,0,.78,1.22,1,1,0,0,0,1.36-.49c1.32-2.19,2.61-4.4,3.9-6.6a1,1,0,0,0-.44-1.56c-.56-.34-1.16-.63-1.75-.94l-1.63-.85Zm5.54-2.23a2.43,2.43,0,0,0-2.58,2.32,2.53,2.53,0,0,0,2.54,2.33,2.48,2.48,0,0,0,2.6-2.33A2.4,2.4,0,0,0,942.45,249.61Zm-15.39,2.86-.19.12q1.11,3.82,2.2,7.65h.23c.37-.62.71-1.25,1.12-1.86a1.6,1.6,0,0,0,.2-1.51c-.27-.82-.46-1.66-.7-2.48,0-.19-.12-.45-.27-.54C928.8,253.36,927.92,252.92,927.06,252.47Z"/><path class="cls-2" d="M946.34,253.17c-.57-4-4-7.2-8.39-8l-.66-.13a11.27,11.27,0,0,0-3.21,0h0c-5.73.9-9.57,5.72-8.74,10.95.81,5.07,6.19,8.76,11.85,8.07S947.17,259.05,946.34,253.17Zm-19.29-.7-.18.12.18-.12,1,.51Zm1.14-2.84a3.14,3.14,0,0,0-.45,0,3.14,3.14,0,0,1,.45,0h0Zm2.53,7.83a1.83,1.83,0,0,0-.1-.59l-.12-.38.12.38A1.83,1.83,0,0,1,930.72,257.46Zm-1.07-3.61c.15.09.21.35.27.54s.12.41.17.62c-.05-.21-.11-.42-.17-.62s-.12-.45-.27-.54l-.64-.36Zm.29,6.35a3.11,3.11,0,0,0-.37.86,1.23,1.23,0,0,0,0,.19,1.23,1.23,0,0,1,0-.19,3.11,3.11,0,0,1,.37-.86l1.35-2.3Zm1.84-8.35h0l.23.11Zm3.7,2a1.14,1.14,0,0,1,.15.17A1.14,1.14,0,0,0,935.48,253.87Zm1.39-1.39-.3,1.72.3-1.72s0-.1,0-.15S936.88,252.43,936.87,252.48Zm1.23-2.85h0Z"/><path class="cls-7" d="M946.34,253.17c-.57-4-4-7.2-8.39-8l-.66-.13a11.27,11.27,0,0,0-3.21,0h0c-5.73.9-9.57,5.72-8.74,10.95.81,5.07,6.19,8.76,11.85,8.07S947.17,259.05,946.34,253.17Zm-19.29-.7-.18.12.18-.12,1,.51Zm1.14-2.84a3.14,3.14,0,0,0-.45,0,3.14,3.14,0,0,1,.45,0h0Zm2.53,7.83a1.83,1.83,0,0,0-.1-.59l-.12-.38.12.38A1.83,1.83,0,0,1,930.72,257.46Zm-1.07-3.61c.15.09.21.35.27.54s.12.41.17.62c-.05-.21-.11-.42-.17-.62s-.12-.45-.27-.54l-.64-.36Zm.29,6.35a3.11,3.11,0,0,0-.37.86,1.23,1.23,0,0,0,0,.19,1.23,1.23,0,0,1,0-.19,3.11,3.11,0,0,1,.37-.86l1.35-2.3Zm1.84-8.35h0l.23.11Zm3.7,2a1.14,1.14,0,0,1,.15.17A1.14,1.14,0,0,0,935.48,253.87Zm1.39-1.39-.3,1.72.3-1.72s0-.1,0-.15S936.88,252.43,936.87,252.48Zm1.23-2.85h0Z"/><path class="cls-8" d="M946.34,253.17c-.57-4-4-7.2-8.39-8l-.66-.13a11.27,11.27,0,0,0-3.21,0h0c-5.73.9-9.57,5.72-8.74,10.95.81,5.07,6.19,8.76,11.85,8.07S947.17,259.05,946.34,253.17Zm-19.29-.7-.18.12.18-.12,1,.51Zm1.14-2.84a3.14,3.14,0,0,0-.45,0,3.14,3.14,0,0,1,.45,0h0Zm2.53,7.83a1.83,1.83,0,0,0-.1-.59l-.12-.38.12.38A1.83,1.83,0,0,1,930.72,257.46Zm-1.07-3.61c.15.09.21.35.27.54s.12.41.17.62c-.05-.21-.11-.42-.17-.62s-.12-.45-.27-.54l-.64-.36Zm.29,6.35a3.11,3.11,0,0,0-.37.86,1.23,1.23,0,0,0,0,.19,1.23,1.23,0,0,1,0-.19,3.11,3.11,0,0,1,.37-.86l1.35-2.3Zm1.84-8.35h0l.23.11Zm3.7,2a1.14,1.14,0,0,1,.15.17A1.14,1.14,0,0,0,935.48,253.87Zm1.39-1.39-.3,1.72.3-1.72s0-.1,0-.15S936.88,252.43,936.87,252.48Zm1.23-2.85h0Z"/><path class="cls-1" d="M936.8,252.12h-4.61l1.47.76c.53.28,1.07.54,1.57.85a.92.92,0,0,1,.4,1.39c-1.16,2-2.32,4-3.5,5.94a1,1,0,0,1-1.23.44,1,1,0,0,1-.7-1.1,3.18,3.18,0,0,1,.33-.76L933,255.5c.1-.16.17-.33.28-.55l-.62-.34-4.3-2.21c-.67-.35-.93-.78-.79-1.29a1.33,1.33,0,0,1,1.43-1q4.45,0,8.91,0c1,0,1.42.37,1.31,1.26-.17,1.31-.41,2.61-.68,3.91a1.15,1.15,0,0,0,.57,1.43c1,.66,2,1.41,3,2.14.58.42.69.93.3,1.38a1.12,1.12,0,0,1-1.65.17c-1.23-.84-2.42-1.74-3.69-2.54a1.77,1.77,0,0,1-.86-2.1c.2-1,.37-2.06.55-3.1A4.6,4.6,0,0,0,936.8,252.12Z"/><path class="cls-1" d="M941.78,250.11a2.15,2.15,0,0,1,2.3,2.09,2.23,2.23,0,0,1-2.33,2.09,2.28,2.28,0,0,1-2.29-2.1A2.18,2.18,0,0,1,941.78,250.11Z"/><path class="cls-1" d="M927.94,252.68c.78.41,1.57.81,2.33,1.24.14.08.19.31.24.48.22.75.39,1.5.63,2.24A1.44,1.44,0,0,1,931,258c-.36.54-.67,1.11-1,1.67h-.2l-2-6.88Z"/><path class="cls-2" d="M945.29,253.31c-.52-3.64-3.58-6.47-7.55-7.21l-.59-.12a10.25,10.25,0,0,0-2.89,0h0c-5.16.82-8.61,5.15-7.86,9.85s5.56,7.88,10.66,7.26S946,258.59,945.29,253.31Zm-15.54,6.36-2-6.88.17-.11c.78.41,1.57.81,2.33,1.24.14.08.19.31.24.48.22.75.39,1.5.63,2.24A1.44,1.44,0,0,1,931,258c-.36.54-.67,1.11-1,1.67Zm12.66.58a1.12,1.12,0,0,1-1.65.17c-1.23-.84-2.42-1.74-3.69-2.54a1.77,1.77,0,0,1-.86-2.1c.2-1,.37-2.06.55-3.1a4.6,4.6,0,0,0,0-.56h-4.61l1.47.76c.53.28,1.07.54,1.57.85a.92.92,0,0,1,.4,1.39c-1.16,2-2.32,4-3.5,5.94a1,1,0,0,1-1.23.44,1,1,0,0,1-.7-1.1,3.18,3.18,0,0,1,.33-.76L933,255.5c.1-.16.17-.33.28-.55l-.62-.34-4.3-2.21c-.67-.35-.93-.78-.79-1.29a1.33,1.33,0,0,1,1.43-1q4.45,0,8.91,0c1,0,1.42.37,1.31,1.26-.17,1.31-.41,2.61-.68,3.91a1.15,1.15,0,0,0,.57,1.43c1,.66,2,1.41,3,2.14C942.69,259.29,942.8,259.8,942.41,260.25Zm-.66-6a2.28,2.28,0,0,1-2.29-2.1,2.18,2.18,0,0,1,2.32-2.08,2.15,2.15,0,0,1,2.3,2.09A2.23,2.23,0,0,1,941.75,254.29Z"/><path class="cls-9" d="M945.29,253.31c-.52-3.64-3.58-6.47-7.55-7.21l-.59-.12a10.25,10.25,0,0,0-2.89,0h0c-5.16.82-8.61,5.15-7.86,9.85s5.56,7.88,10.66,7.26S946,258.59,945.29,253.31Zm-15.54,6.36-2-6.88.17-.11c.78.41,1.57.81,2.33,1.24.14.08.19.31.24.48.22.75.39,1.5.63,2.24A1.44,1.44,0,0,1,931,258c-.36.54-.67,1.11-1,1.67Zm12.66.58a1.12,1.12,0,0,1-1.65.17c-1.23-.84-2.42-1.74-3.69-2.54a1.77,1.77,0,0,1-.86-2.1c.2-1,.37-2.06.55-3.1a4.6,4.6,0,0,0,0-.56h-4.61l1.47.76c.53.28,1.07.54,1.57.85a.92.92,0,0,1,.4,1.39c-1.16,2-2.32,4-3.5,5.94a1,1,0,0,1-1.23.44,1,1,0,0,1-.7-1.1,3.18,3.18,0,0,1,.33-.76L933,255.5c.1-.16.17-.33.28-.55l-.62-.34-4.3-2.21c-.67-.35-.93-.78-.79-1.29a1.33,1.33,0,0,1,1.43-1q4.45,0,8.91,0c1,0,1.42.37,1.31,1.26-.17,1.31-.41,2.61-.68,3.91a1.15,1.15,0,0,0,.57,1.43c1,.66,2,1.41,3,2.14C942.69,259.29,942.8,259.8,942.41,260.25Zm-.66-6a2.28,2.28,0,0,1-2.29-2.1,2.18,2.18,0,0,1,2.32-2.08,2.15,2.15,0,0,1,2.3,2.09A2.23,2.23,0,0,1,941.75,254.29Z"/><path class="cls-10" d="M945.29,253.31c-.52-3.64-3.58-6.47-7.55-7.21l-.59-.12a10.25,10.25,0,0,0-2.89,0h0c-5.16.82-8.61,5.15-7.86,9.85s5.56,7.88,10.66,7.26S946,258.59,945.29,253.31Zm-15.54,6.36-2-6.88.17-.11c.78.41,1.57.81,2.33,1.24.14.08.19.31.24.48.22.75.39,1.5.63,2.24A1.44,1.44,0,0,1,931,258c-.36.54-.67,1.11-1,1.67Zm12.66.58a1.12,1.12,0,0,1-1.65.17c-1.23-.84-2.42-1.74-3.69-2.54a1.77,1.77,0,0,1-.86-2.1c.2-1,.37-2.06.55-3.1a4.6,4.6,0,0,0,0-.56h-4.61l1.47.76c.53.28,1.07.54,1.57.85a.92.92,0,0,1,.4,1.39c-1.16,2-2.32,4-3.5,5.94a1,1,0,0,1-1.23.44,1,1,0,0,1-.7-1.1,3.18,3.18,0,0,1,.33-.76L933,255.5c.1-.16.17-.33.28-.55l-.62-.34-4.3-2.21c-.67-.35-.93-.78-.79-1.29a1.33,1.33,0,0,1,1.43-1q4.45,0,8.91,0c1,0,1.42.37,1.31,1.26-.17,1.31-.41,2.61-.68,3.91a1.15,1.15,0,0,0,.57,1.43c1,.66,2,1.41,3,2.14C942.69,259.29,942.8,259.8,942.41,260.25Zm-.66-6a2.28,2.28,0,0,1-2.29-2.1,2.18,2.18,0,0,1,2.32-2.08,2.15,2.15,0,0,1,2.3,2.09A2.23,2.23,0,0,1,941.75,254.29Z"/><polygon class="cls-2" points="507.06 253.41 499.69 296.53 529.45 296.53 535.76 253.86 507.06 253.41"/><polygon class="cls-2" points="572.74 253.74 534.68 272.94 567.46 296.91 602.48 297.27 565.08 273.26 604.51 253.45 572.74 253.74"/><path class="cls-2" d="M901.37,253.74l-35.9.3-46.79,40.51-3.4-.56L818,272.42s-29.56-1.4-39.56.46l-.6,4.95,18.63.77-1.11,10.74s-34.55,5.81-47-3.89c0,0-13.26-10.08,7.19-21.3,0,0,13-8.63,63.48-2.6l.29-3.65s-81-18.75-103.45,15.54c0,0-4.84-21.92-65.1-21.11,0,0-52.69,1.22-54.6,22.51,0,0-5.6,24,62.49,23.1,0,0,45.17.51,56.16-20.36l.5-1.44s1.3,10.06,13.34,15.36c0,0,16.85,6.61,47,5.76l39.87-.68,28.07-.34,13.85-13.37,40.06.17,9.73,13.37h27Zm-214,27.86c-2.37,2.4-5.84,4-9.06,5.28a49.83,49.83,0,0,1-13,3.12c-3.16.34-6.58.51-9.75.77,0,0,0,.05,0,0-6.68-.06-13.66-.56-20-2.64a31.92,31.92,0,0,1-10.67-6,11.17,11.17,0,0,1-3.56-7.77c.1-2.42,2.57-5.45,4.4-7.16,3-2.76,7.75-4.61,11.67-5.9a49.88,49.88,0,0,1,12-2.22c3.33-.26,6.55-.59,9.88-.53a58.53,58.53,0,0,1,20.42,3.74c3,1.21,6.46,3.06,8.6,5.37a12.6,12.6,0,0,1,2.94,7.17C691.25,277.16,689.06,279.9,687.38,281.6ZM864,276.69c4.77-4.66,13.37-13.14,18-17.69,3,4.56,8.7,13.06,11.76,17.69Z"/><path class="cls-11" d="M901.37,253.74l-35.9.3-46.79,40.51-3.4-.56L818,272.42s-29.56-1.4-39.56.46l-.6,4.95,18.63.77-1.11,10.74s-34.55,5.81-47-3.89c0,0-13.26-10.08,7.19-21.3,0,0,13-8.63,63.48-2.6l.29-3.65s-81-18.75-103.45,15.54c0,0-4.84-21.92-65.1-21.11,0,0-52.69,1.22-54.6,22.51,0,0-5.6,24,62.49,23.1,0,0,45.17.51,56.16-20.36l.5-1.44s1.3,10.06,13.34,15.36c0,0,16.85,6.61,47,5.76l39.87-.68,28.07-.34,13.85-13.37,40.06.17,9.73,13.37h27Zm-214,27.86c-2.37,2.4-5.84,4-9.06,5.28a49.83,49.83,0,0,1-13,3.12c-3.16.34-6.58.51-9.75.77,0,0,0,.05,0,0-6.68-.06-13.66-.56-20-2.64a31.92,31.92,0,0,1-10.67-6,11.17,11.17,0,0,1-3.56-7.77c.1-2.42,2.57-5.45,4.4-7.16,3-2.76,7.75-4.61,11.67-5.9a49.88,49.88,0,0,1,12-2.22c3.33-.26,6.55-.59,9.88-.53a58.53,58.53,0,0,1,20.42,3.74c3,1.21,6.46,3.06,8.6,5.37a12.6,12.6,0,0,1,2.94,7.17C691.25,277.16,689.06,279.9,687.38,281.6ZM864,276.69c4.77-4.66,13.37-13.14,18-17.69,3,4.56,8.7,13.06,11.76,17.69Z"/><polygon class="cls-12" points="507.06 253.41 499.69 296.53 529.45 296.53 535.76 253.86 507.06 253.41"/><polygon class="cls-13" points="572.74 253.74 534.68 272.94 567.46 296.91 602.48 297.27 565.08 273.26 604.51 253.45 572.74 253.74"/><g class="cls-14"><path class="cls-15" d="M901.37,253.74l-35.9.3-46.79,40.51-3.4-.56L818,272.42s-29.56-1.4-39.56.46l-.6,4.95,18.63.77-1.11,10.74s-34.55,5.81-47-3.89c0,0-13.26-10.08,7.19-21.3,0,0,13-8.63,63.48-2.6l.29-3.65s-81-18.75-103.45,15.54c0,0-4.84-21.92-65.1-21.11,0,0-52.69,1.22-54.6,22.51,0,0-5.6,24,62.49,23.1,0,0,45.17.51,56.16-20.36l.5-1.44s1.3,10.06,13.34,15.36c0,0,16.85,6.61,47,5.76l39.87-.68,28.07-.34,13.85-13.37,40.06.17,9.73,13.37h27Zm-214,27.86c-2.37,2.4-5.84,4-9.06,5.28a49.83,49.83,0,0,1-13,3.12c-3.16.34-6.58.51-9.75.77,0,0,0,.05,0,0-6.68-.06-13.66-.56-20-2.64a31.92,31.92,0,0,1-10.67-6,11.17,11.17,0,0,1-3.56-7.77c.1-2.42,2.57-5.45,4.4-7.16,3-2.76,7.75-4.61,11.67-5.9a49.88,49.88,0,0,1,12-2.22c3.33-.26,6.55-.59,9.88-.53a58.53,58.53,0,0,1,20.42,3.74c3,1.21,6.46,3.06,8.6,5.37a12.6,12.6,0,0,1,2.94,7.17C691.25,277.16,689.06,279.9,687.38,281.6ZM864,276.69c4.77-4.66,13.37-13.14,18-17.69,3,4.56,8.7,13.06,11.76,17.69Z"/><polygon class="cls-16" points="507.06 253.41 499.69 296.53 529.45 296.53 535.76 253.86 507.06 253.41"/><polygon class="cls-17" points="572.74 253.74 534.68 272.94 567.46 296.91 602.48 297.27 565.08 273.26 604.51 253.45 572.74 253.74"/></g><g class="cls-4"><path class="cls-5" d="M538.13,252.08c-1.08,6.37-2.16,12.66-3.25,19.11.39-.17.63-.25.85-.37L565,255.9c2.2-1.13,4.41-2.26,6.62-3.36a2.3,2.3,0,0,1,1-.23c2.58,0,5.16,0,7.74,0s5.34-.08,8-.12l6.79-.12,8-.13,7.26-.1a.79.79,0,0,1,.46.1l-42.58,21.3C581,281.93,594.09,290,607,298.52h-.79q-19.45,0-38.92,0a2.18,2.18,0,0,1-1.5-.54c-7.43-6-15.18-11.66-23-17.26-2.59-1.86-5.19-3.69-7.79-5.53l-.61-.39c-.09.47-.19.85-.24,1.23-.38,2.82-.75,5.64-1.13,8.45s-.79,5.58-1.18,8.37c-.23,1.68-.49,3.36-.67,5.05-.06.53-.29.62-.81.62q-8.49,0-17,0H498.3c-.82,0-.82,0-.68-.78.57-3.18,1.13-6.37,1.69-9.55l1.41-8.1c.52-3,1-6.08,1.57-9.12s1-6,1.55-9,1.06-6.16,1.57-9.25c.15-.91.12-.91,1.17-.91l16.22.13,14.73.12Z"/><path class="cls-6" d="M658.75,299.47h-9.34a3.18,3.18,0,0,0-.62-.07c-1.35-.06-2.71-.08-4.06-.15-2.19-.11-4.38-.18-6.55-.4-3.43-.34-6.86-.73-10.27-1.2a77.29,77.29,0,0,1-17.25-4.31,36.84,36.84,0,0,1-10.82-5.89c-5-4.22-6.69-9.37-5-15.34,1.14-4,4-7,7.51-9.45a49.69,49.69,0,0,1,15.25-6.79,126.38,126.38,0,0,1,23.95-4.16c3.73-.32,7.48-.53,11.23-.61a157.77,157.77,0,0,1,16.27.33c3.19.26,6.38.53,9.56.86a89.62,89.62,0,0,1,15,2.83,52.86,52.86,0,0,1,14.48,6.16c3.52,2.26,6.38,5,7.67,8.87a1.12,1.12,0,0,0,.22.26c.5-.71.93-1.41,1.43-2.05a29.89,29.89,0,0,1,10.11-8.06,77.33,77.33,0,0,1,24.94-7.48c4.07-.59,8.19-.94,12.3-1.26,3.26-.26,6.54-.41,9.81-.47a107.82,107.82,0,0,1,13.21.34c2.58.27,5.17.45,7.74.78,3.63.47,7.27,1,10.88,1.57,4.88.79,9.75,1.69,14.62,2.52.52.09.67.27.65.72-.07,1.7-.09,3.39-.16,5.09a12.35,12.35,0,0,1-.16,1.33l-7.47-.69c-3.23-.29-6.46-.59-9.7-.83-2.63-.2-5.27-.36-7.9-.48-3.68-.15-7.37-.3-11-.36-2,0-4,.06-6,.22-3.42.27-6.84.54-10.22,1a44.85,44.85,0,0,0-13.32,3.79,17.49,17.49,0,0,0-7.57,6.06c-2.1,3.29-2.46,6.64-.15,10a12.59,12.59,0,0,0,6.12,4.41,47.08,47.08,0,0,0,14.1,2.72c2.37.15,4.75.19,7.12.12,3.18-.11,6.35-.35,9.53-.59,2.67-.2,5.33-.5,8-.72.52,0,.63-.28.68-.66q.38-3.29.78-6.57c.05-.39-.11-.5-.51-.52-1.72-.06-3.43-.15-5.15-.21l-8.33-.26c-1.31,0-2.62-.09-3.93-.11-.49,0-.72-.13-.65-.6.11-.81.18-1.63.28-2.44.18-1.62.35-3.25.57-4.87,0-.14.3-.33.48-.36,1.09-.14,2.19-.29,3.29-.36,3.11-.19,6.22-.37,9.33-.49,2.53-.1,5.07-.12,7.6-.13,1.81,0,3.62.06,5.43.09,2.89,0,5.79.06,8.68.13,2.64.05,5.29.14,7.93.24.94,0,.95.11.81,1-.32,1.85-.63,3.71-.9,5.57-.31,2.2-.58,4.41-.84,6.63s-.53,4.66-.78,7c0,.39,0,.78,0,1.31l.6-.47c5-4.35,10-8.69,15-13.05q15.15-13.22,30.3-26.43a1.82,1.82,0,0,1,1.06-.4c3.67-.07,7.33-.1,11-.13q8.16-.08,16.3-.13c3.17,0,6.34,0,9.51,0a1.67,1.67,0,0,1,1.5.68c2.57,3.27,5.18,6.51,7.77,9.77l28,35.15c.27.34.52.69.85,1.13h-2.48l-30.56,0c-.49,0-.88,0-1.17-.5a111.4,111.4,0,0,0-8.76-12.34,1.16,1.16,0,0,0-1-.47l-36.47,0a1.66,1.66,0,0,0-1,.41q-6.27,6.18-12.47,12.41a1.46,1.46,0,0,1-1.17.46q-3.93,0-7.88,0c-9.91,0-19.82.05-29.74.13-2.86,0-5.73.24-8.59.34-2.64.1-5.29.19-7.93.25s-5.52.1-8.28.16a3.6,3.6,0,0,0-.63.15H769.85a5.23,5.23,0,0,0-.77-.15c-3.07-.13-6.14-.2-9.21-.39-3.51-.23-7-.45-10.5-.89q-5.86-.74-11.65-1.87a42.18,42.18,0,0,1-13-4.66c-4.41-2.54-7.88-5.81-9.63-10.38a1.62,1.62,0,0,0-.2-.28l-.15.08a1,1,0,0,0-.15.21,23,23,0,0,1-8.55,8.31,58.6,58.6,0,0,1-17.47,6.64,102.29,102.29,0,0,1-12.84,2.11c-3,.3-5.91.61-8.88.82-2.41.18-4.83.2-7.24.3A6.67,6.67,0,0,0,658.75,299.47Zm-3.3-9.9h0c3.17-.26,6.34-.46,9.5-.79a50.31,50.31,0,0,0,13-3.15,24.12,24.12,0,0,0,8.59-5.25,8.57,8.57,0,0,0,2.83-5.95,8,8,0,0,0-2.39-5.6,21.29,21.29,0,0,0-7.92-5.05,56.16,56.16,0,0,0-20-3.66c-3.33-.06-6.68.19-10,.44A51.29,51.29,0,0,0,637,263a27.79,27.79,0,0,0-10.56,5.72,9,9,0,0,0-3.2,6.13c-.11,2.54,1.13,4.63,3,6.43a25.14,25.14,0,0,0,9.6,5.26A63.85,63.85,0,0,0,655.45,289.57ZM867.57,275.3h23.19l-9.11-13.75Z"/></g><g class="cls-4"><path class="cls-5" d="M538.13,252.08c-1.08,6.37-2.16,12.66-3.25,19.11.39-.17.63-.25.85-.37L565,255.9c2.2-1.13,4.41-2.26,6.62-3.36a2.3,2.3,0,0,1,1-.23c2.58,0,5.16,0,7.74,0s5.34-.08,8-.12l6.79-.12,8-.13,7.26-.1a.79.79,0,0,1,.46.1l-42.58,21.3C581,281.93,594.09,290,607,298.52h-.79q-19.45,0-38.92,0a2.18,2.18,0,0,1-1.5-.54c-7.43-6-15.18-11.66-23-17.26-2.59-1.86-5.19-3.69-7.79-5.53l-.61-.39c-.09.47-.19.85-.24,1.23-.38,2.82-.75,5.64-1.13,8.45s-.79,5.58-1.18,8.37c-.23,1.68-.49,3.36-.67,5.05-.06.53-.29.62-.81.62q-8.49,0-17,0H498.3c-.82,0-.82,0-.68-.78.57-3.18,1.13-6.37,1.69-9.55l1.41-8.1c.52-3,1-6.08,1.57-9.12s1-6,1.55-9,1.06-6.16,1.57-9.25c.15-.91.12-.91,1.17-.91l16.22.13,14.73.12Z"/><path class="cls-6" d="M658.75,299.47h-9.34a3.18,3.18,0,0,0-.62-.07c-1.35-.06-2.71-.08-4.06-.15-2.19-.11-4.38-.18-6.55-.4-3.43-.34-6.86-.73-10.27-1.2a77.29,77.29,0,0,1-17.25-4.31,36.84,36.84,0,0,1-10.82-5.89c-5-4.22-6.69-9.37-5-15.34,1.14-4,4-7,7.51-9.45a49.69,49.69,0,0,1,15.25-6.79,126.38,126.38,0,0,1,23.95-4.16c3.73-.32,7.48-.53,11.23-.61a157.77,157.77,0,0,1,16.27.33c3.19.26,6.38.53,9.56.86a89.62,89.62,0,0,1,15,2.83,52.86,52.86,0,0,1,14.48,6.16c3.52,2.26,6.38,5,7.67,8.87a1.12,1.12,0,0,0,.22.26c.5-.71.93-1.41,1.43-2.05a29.89,29.89,0,0,1,10.11-8.06,77.33,77.33,0,0,1,24.94-7.48c4.07-.59,8.19-.94,12.3-1.26,3.26-.26,6.54-.41,9.81-.47a107.82,107.82,0,0,1,13.21.34c2.58.27,5.17.45,7.74.78,3.63.47,7.27,1,10.88,1.57,4.88.79,9.75,1.69,14.62,2.52.52.09.67.27.65.72-.07,1.7-.09,3.39-.16,5.09a12.35,12.35,0,0,1-.16,1.33l-7.47-.69c-3.23-.29-6.46-.59-9.7-.83-2.63-.2-5.27-.36-7.9-.48-3.68-.15-7.37-.3-11-.36-2,0-4,.06-6,.22-3.42.27-6.84.54-10.22,1a44.85,44.85,0,0,0-13.32,3.79,17.49,17.49,0,0,0-7.57,6.06c-2.1,3.29-2.46,6.64-.15,10a12.59,12.59,0,0,0,6.12,4.41,47.08,47.08,0,0,0,14.1,2.72c2.37.15,4.75.19,7.12.12,3.18-.11,6.35-.35,9.53-.59,2.67-.2,5.33-.5,8-.72.52,0,.63-.28.68-.66q.38-3.29.78-6.57c.05-.39-.11-.5-.51-.52-1.72-.06-3.43-.15-5.15-.21l-8.33-.26c-1.31,0-2.62-.09-3.93-.11-.49,0-.72-.13-.65-.6.11-.81.18-1.63.28-2.44.18-1.62.35-3.25.57-4.87,0-.14.3-.33.48-.36,1.09-.14,2.19-.29,3.29-.36,3.11-.19,6.22-.37,9.33-.49,2.53-.1,5.07-.12,7.6-.13,1.81,0,3.62.06,5.43.09,2.89,0,5.79.06,8.68.13,2.64.05,5.29.14,7.93.24.94,0,.95.11.81,1-.32,1.85-.63,3.71-.9,5.57-.31,2.2-.58,4.41-.84,6.63s-.53,4.66-.78,7c0,.39,0,.78,0,1.31l.6-.47c5-4.35,10-8.69,15-13.05q15.15-13.22,30.3-26.43a1.82,1.82,0,0,1,1.06-.4c3.67-.07,7.33-.1,11-.13q8.16-.08,16.3-.13c3.17,0,6.34,0,9.51,0a1.67,1.67,0,0,1,1.5.68c2.57,3.27,5.18,6.51,7.77,9.77l28,35.15c.27.34.52.69.85,1.13h-2.48l-30.56,0c-.49,0-.88,0-1.17-.5a111.4,111.4,0,0,0-8.76-12.34,1.16,1.16,0,0,0-1-.47l-36.47,0a1.66,1.66,0,0,0-1,.41q-6.27,6.18-12.47,12.41a1.46,1.46,0,0,1-1.17.46q-3.93,0-7.88,0c-9.91,0-19.82.05-29.74.13-2.86,0-5.73.24-8.59.34-2.64.1-5.29.19-7.93.25s-5.52.1-8.28.16a3.6,3.6,0,0,0-.63.15H769.85a5.23,5.23,0,0,0-.77-.15c-3.07-.13-6.14-.2-9.21-.39-3.51-.23-7-.45-10.5-.89q-5.86-.74-11.65-1.87a42.18,42.18,0,0,1-13-4.66c-4.41-2.54-7.88-5.81-9.63-10.38a1.62,1.62,0,0,0-.2-.28l-.15.08a1,1,0,0,0-.15.21,23,23,0,0,1-8.55,8.31,58.6,58.6,0,0,1-17.47,6.64,102.29,102.29,0,0,1-12.84,2.11c-3,.3-5.91.61-8.88.82-2.41.18-4.83.2-7.24.3A6.67,6.67,0,0,0,658.75,299.47Zm-3.3-9.9h0c3.17-.26,6.34-.46,9.5-.79a50.31,50.31,0,0,0,13-3.15,24.12,24.12,0,0,0,8.59-5.25,8.57,8.57,0,0,0,2.83-5.95,8,8,0,0,0-2.39-5.6,21.29,21.29,0,0,0-7.92-5.05,56.16,56.16,0,0,0-20-3.66c-3.33-.06-6.68.19-10,.44A51.29,51.29,0,0,0,637,263a27.79,27.79,0,0,0-10.56,5.72,9,9,0,0,0-3.2,6.13c-.11,2.54,1.13,4.63,3,6.43a25.14,25.14,0,0,0,9.6,5.26A63.85,63.85,0,0,0,655.45,289.57ZM867.57,275.3h23.19l-9.11-13.75Z"/></g></svg>
