<svg id="Layer_1" data-name="Layer 1" xmlns="http://www.w3.org/2000/svg" viewBox="0 0 2692 371"><defs><style>.cls-1,.cls-4{fill:#2292dd;}.cls-2,.cls-3{fill:none;stroke:#2292dd;stroke-miterlimit:10;}.cls-3{stroke-width:3px;}.cls-4{font-size:50px;font-family:MyriadPro-Regular, Myriad Pro;}</style></defs><title>Artboard 1</title><ellipse class="cls-1" cx="50.33" cy="199" rx="29.33" ry="40"/><ellipse class="cls-2" cx="279.38" cy="199" rx="29.33" ry="40"/><ellipse class="cls-2" cx="1315.67" cy="199" rx="29.33" ry="40"/><line class="cls-3" x1="50.33" y1="199" x2="50.33" y2="39"/><path class="cls-1" d="M51.52,39c24.41,0,44.21,12.53,44.21,28S75.93,95,51.52,95"/><line class="cls-3" x1="50.33" y1="199" x2="248.65" y2="199"/><ellipse class="cls-2" cx="539.15" cy="199" rx="29.33" ry="40"/><line class="cls-3" x1="310.1" y1="199" x2="508.42" y2="199"/><ellipse class="cls-2" cx="798.92" cy="199" rx="29.33" ry="40"/><line class="cls-3" x1="569.87" y1="199" x2="768.19" y2="199"/><ellipse class="cls-2" cx="1058.69" cy="199" rx="29.33" ry="40"/><line class="cls-3" x1="829.65" y1="199" x2="1027.97" y2="199"/><line class="cls-3" x1="1088.02" y1="199" x2="1286.34" y2="199"/><ellipse class="cls-2" cx="1830.67" cy="199" rx="29.33" ry="40"/><ellipse class="cls-2" cx="1573.69" cy="199" rx="29.33" ry="40"/><line class="cls-3" x1="1344.65" y1="199" x2="1542.97" y2="199"/><line class="cls-3" x1="1603.02" y1="199" x2="1801.34" y2="199"/><ellipse class="cls-2" cx="2087.67" cy="199" rx="29.33" ry="40"/><line class="cls-3" x1="1860.02" y1="199" x2="2058.34" y2="199"/><ellipse class="cls-1" cx="2602.67" cy="199" rx="29.33" ry="40"/><ellipse class="cls-2" cx="2345.69" cy="199" rx="29.33" ry="40"/><line class="cls-3" x1="2116.65" y1="199" x2="2314.97" y2="199"/><line class="cls-3" x1="2375.02" y1="199" x2="2573.34" y2="199"/><text class="cls-4" transform="translate(51.58 243.07) rotate(60.58)">1974</text><text class="cls-4" transform="translate(279.58 243.07) rotate(60.58)">1977</text><text class="cls-4" transform="translate(539.58 239.07) rotate(60.58)">1980</text><text class="cls-4" transform="translate(798.58 243.07) rotate(60.58)">1981</text><text class="cls-4" transform="translate(1058.58 243.07) rotate(60.58)">1982</text><text class="cls-4" transform="translate(1315.58 243.07) rotate(60.58)">1986</text><text class="cls-4" transform="translate(1573.58 243.07) rotate(60.58)">1990</text><text class="cls-4" transform="translate(1830.58 239.07) rotate(60.58)">1991</text><text class="cls-4" transform="translate(2087.58 239.07) rotate(60.58)">1998</text><text class="cls-4" transform="translate(2345.58 239.07) rotate(60.58)">2016</text><text class="cls-4" transform="translate(2602.58 239.07) rotate(60.58)">2019</text></svg>
